<svg aria-roledescription="flowchart-v2" role="graphics-document document" style="overflow: hidden; max-width: 100%;" xmlns="http://www.w3.org/2000/svg" width="1249px" id="graph-div" height="636px" xmlns:xlink="http://www.w3.org/1999/xlink" xmlns:ev="http://www.w3.org/2001/xml-events"><g id="viewport-20260223204114973" class="svg-pan-zoom_viewport" transform="matrix(0.32620182633399963,0,0,0.32620182633399963,2.6096231937408447,194.45985412597656)" style="transform: matrix(0.326202, 0, 0, 0.326202, 2.60962, 194.46);"><style>#graph-div{font-family:"trebuchet ms",verdana,arial,sans-serif;font-size:16px;fill:#333;}#graph-div .error-icon{fill:#552222;}#graph-div .error-text{fill:#552222;stroke:#552222;}#graph-div .edge-thickness-normal{stroke-width:2px;}#graph-div .edge-thickness-thick{stroke-width:3.5px;}#graph-div .edge-pattern-solid{stroke-dasharray:0;}#graph-div .edge-pattern-dashed{stroke-dasharray:3;}#graph-div .edge-pattern-dotted{stroke-dasharray:2;}#graph-div .marker{fill:#333333;stroke:#333333;}#graph-div .marker.cross{stroke:#333333;}#graph-div svg{font-family:"trebuchet ms",verdana,arial,sans-serif;font-size:16px;}#graph-div .label{font-family:"trebuchet ms",verdana,arial,sans-serif;color:#333;}#graph-div .cluster-label text{fill:#333;}#graph-div .cluster-label span,#graph-div p{color:#333;}#graph-div .label text,#graph-div span,#graph-div p{fill:#333;color:#333;}#graph-div .node rect,#graph-div .node circle,#graph-div .node ellipse,#graph-div .node polygon,#graph-div .node path{fill:#ECECFF;stroke:#9370DB;stroke-width:1px;}#graph-div .flowchart-label text{text-anchor:middle;}#graph-div .node .katex path{fill:#000;stroke:#000;stroke-width:1px;}#graph-div .node .label{text-align:center;}#graph-div .node.clickable{cursor:pointer;}#graph-div .arrowheadPath{fill:#333333;}#graph-div .edgePath .path{stroke:#333333;stroke-width:2.0px;}#graph-div .flowchart-link{stroke:#333333;fill:none;}#graph-div .edgeLabel{background-color:#e8e8e8;text-align:center;}#graph-div .edgeLabel rect{opacity:0.5;background-color:#e8e8e8;fill:#e8e8e8;}#graph-div .labelBkg{background-color:rgba(232, 232, 232, 0.5);}#graph-div .cluster rect{fill:#ffffde;stroke:#aaaa33;stroke-width:1px;}#graph-div .cluster text{fill:#333;}#graph-div .cluster span,#graph-div p{color:#333;}#graph-div div.mermaidTooltip{position:absolute;text-align:center;max-width:200px;padding:2px;font-family:"trebuchet ms",verdana,arial,sans-serif;font-size:12px;background:hsl(80, 100%, 96.2745098039%);border:1px solid #aaaa33;border-radius:2px;pointer-events:none;z-index:100;}#graph-div .flowchartTitleText{text-anchor:middle;font-size:18px;fill:#333;}#graph-div :root{--mermaid-font-family:"trebuchet ms",verdana,arial,sans-serif;}#graph-div .confluence&gt;*{fill:#fdfd96!important;stroke:#333!important;stroke-width:2px!important;}#graph-div .confluence span{fill:#fdfd96!important;stroke:#333!important;stroke-width:2px!important;}#graph-div .chroma&gt;*{fill:#e8f4f8!important;stroke:#333!important;stroke-width:2px!important;}#graph-div .chroma span{fill:#e8f4f8!important;stroke:#333!important;stroke-width:2px!important;}#graph-div .neo4j&gt;*{fill:#f0d9ff!important;stroke:#333!important;stroke-width:2px!important;}#graph-div .neo4j span{fill:#f0d9ff!important;stroke:#333!important;stroke-width:2px!important;}#graph-div .chat&gt;*{fill:#e6f7e6!important;stroke:#333!important;stroke-width:2px!important;}#graph-div .chat span{fill:#e6f7e6!important;stroke:#333!important;stroke-width:2px!important;}</style><g><marker orient="auto" markerHeight="12" markerWidth="12" markerUnits="userSpaceOnUse" refY="5" refX="6" viewBox="0 0 10 10" class="marker flowchart" id="graph-div_flowchart-pointEnd"><path style="stroke-width: 1px; stroke-dasharray: 1px, 0px;" class="arrowMarkerPath" d="M 0 0 L 10 5 L 0 10 z"/></marker><marker orient="auto" markerHeight="12" markerWidth="12" markerUnits="userSpaceOnUse" refY="5" refX="4.5" viewBox="0 0 10 10" class="marker flowchart" id="graph-div_flowchart-pointStart"><path style="stroke-width: 1px; stroke-dasharray: 1px, 0px;" class="arrowMarkerPath" d="M 0 5 L 10 10 L 10 0 z"/></marker><marker orient="auto" markerHeight="11" markerWidth="11" markerUnits="userSpaceOnUse" refY="5" refX="11" viewBox="0 0 10 10" class="marker flowchart" id="graph-div_flowchart-circleEnd"><circle style="stroke-width: 1px; stroke-dasharray: 1px, 0px;" class="arrowMarkerPath" r="5" cy="5" cx="5"/></marker><marker orient="auto" markerHeight="11" markerWidth="11" markerUnits="userSpaceOnUse" refY="5" refX="-1" viewBox="0 0 10 10" class="marker flowchart" id="graph-div_flowchart-circleStart"><circle style="stroke-width: 1px; stroke-dasharray: 1px, 0px;" class="arrowMarkerPath" r="5" cy="5" cx="5"/></marker><marker orient="auto" markerHeight="11" markerWidth="11" markerUnits="userSpaceOnUse" refY="5.2" refX="12" viewBox="0 0 11 11" class="marker cross flowchart" id="graph-div_flowchart-crossEnd"><path style="stroke-width: 2px; stroke-dasharray: 1px, 0px;" class="arrowMarkerPath" d="M 1,1 l 9,9 M 10,1 l -9,9"/></marker><marker orient="auto" markerHeight="11" markerWidth="11" markerUnits="userSpaceOnUse" refY="5.2" refX="-1" viewBox="0 0 11 11" class="marker cross flowchart" id="graph-div_flowchart-crossStart"><path style="stroke-width: 2px; stroke-dasharray: 1px, 0px;" class="arrowMarkerPath" d="M 1,1 l 9,9 M 10,1 l -9,9"/></marker><g class="root"><g class="clusters"><g id="Phase4" class="cluster chat flowchart-label"><rect height="206.5749969482422" width="2070.050003051758" y="0" x="1745.933349609375" ry="0" rx="0" style=""/><g transform="translate(2573.5000076293945, 0)" class="cluster-label"><foreignObject height="24" width="414.91668701171875"><div xmlns="http://www.w3.org/1999/xhtml" style="display: inline-block; white-space: nowrap;"><span class="nodeLabel">④ Hybrid Retrieval &amp; Chat — chat.py / graph_retriever.py</span></div></foreignObject></g></g><g id="Phase3" class="cluster neo4j flowchart-label"><rect height="319.5876350402832" width="1254.7333221435547" y="408.3866195678711" x="1127.433349609375" ry="0" rx="0" style=""/><g transform="translate(1622.150016784668, 408.3866195678711)" class="cluster-label"><foreignObject height="24" width="265.29998779296875"><div xmlns="http://www.w3.org/1999/xhtml" style="display: inline-block; white-space: nowrap;"><span class="nodeLabel">③ Graph Building — graph_builder.py</span></div></foreignObject></g></g><g id="Phase2" class="cluster chroma flowchart-label"><rect height="161.8116226196289" width="695.1999969482422" y="226.5749969482422" x="1479.2000122070312" ry="0" rx="0" style=""/><g transform="translate(1682.2500076293945, 226.5749969482422)" class="cluster-label"><foreignObject height="24" width="289.1000061035156"><div xmlns="http://www.w3.org/1999/xhtml" style="display: inline-block; white-space: nowrap;"><span class="nodeLabel">② Vector Indexing — index_generator.py</span></div></foreignObject></g></g><g id="Phase1" class="cluster confluence flowchart-label"><rect height="469.4569511413574" width="1077.433349609375" y="287.9890785217285" x="0" ry="0" rx="0" style=""/><g transform="translate(413.8416748046875, 287.9890785217285)" class="cluster-label"><foreignObject height="24" width="249.75"><div xmlns="http://www.w3.org/1999/xhtml" style="display: inline-block; white-space: nowrap;"><span class="nodeLabel">① Extraction — app_confluence.py</span></div></foreignObject></g></g></g><g class="edgePaths"><path marker-end="url(#graph-div_flowchart-pointEnd)" style="fill:none;" class="edge-thickness-normal edge-pattern-solid flowchart-link LS-A1 LE-A2" id="L-A1-A2-0" d="M120.417,556.983L124.583,556.983C128.75,556.983,137.083,556.983,144.533,556.983C151.983,556.983,158.55,556.983,161.833,556.983L165.117,556.983"/><path marker-end="url(#graph-div_flowchart-pointEnd)" style="fill:none;" class="edge-thickness-normal edge-pattern-solid flowchart-link LS-A2 LE-A3" id="L-A2-A3-0" d="M348.217,556.983L352.383,556.983C356.55,556.983,364.883,556.983,372.333,556.983C379.783,556.983,386.35,556.983,389.633,556.983L392.917,556.983"/><path marker-end="url(#graph-div_flowchart-pointEnd)" style="fill:none;" class="edge-thickness-normal edge-pattern-solid flowchart-link LS-A3 LE-A4" id="L-A3-A4-0" d="M603.7,556.983L607.867,556.983C612.033,556.983,620.367,556.983,627.817,556.983C635.267,556.983,641.833,556.983,645.117,556.983L648.4,556.983"/><path marker-end="url(#graph-div_flowchart-pointEnd)" style="fill:none;" class="edge-thickness-normal edge-pattern-solid flowchart-link LS-A4 LE-A5" id="L-A4-A5-0" d="M769.627,537.483L787.42,517.175C805.212,496.868,840.798,456.252,869.454,435.944C898.111,415.637,919.839,415.637,930.703,415.637L941.567,415.637"/><path marker-end="url(#graph-div_flowchart-pointEnd)" style="fill:none;" class="edge-thickness-normal edge-pattern-solid flowchart-link LS-A4 LE-A6" id="L-A4-A6-0" d="M851.383,556.983L855.55,556.983C859.717,556.983,868.05,556.983,875.5,556.983C882.95,556.983,889.517,556.983,892.8,556.983L896.083,556.983"/><path marker-end="url(#graph-div_flowchart-pointEnd)" style="fill:none;" class="edge-thickness-normal edge-pattern-solid flowchart-link LS-A4 LE-A7" id="L-A4-A7-0" d="M771.446,576.483L788.936,594.523C806.425,612.563,841.404,648.644,864.919,666.684C888.433,684.724,900.483,684.724,906.508,684.724L912.533,684.724"/><path marker-end="url(#graph-div_flowchart-pointEnd)" style="fill:none;" class="edge-thickness-normal edge-pattern-solid flowchart-link LS-B1 LE-B2" id="L-B1-B2-0" d="M1695.933,288.856L1700.1,288.856C1704.267,288.856,1712.6,288.856,1720.933,288.856C1729.267,288.856,1737.6,288.856,1745.838,289.923C1754.076,290.991,1762.218,293.126,1766.29,294.194L1770.361,295.261"/><path marker-end="url(#graph-div_flowchart-pointEnd)" style="fill:none;" class="edge-thickness-normal edge-pattern-solid flowchart-link LS-B2 LE-B3" id="L-B2-B3-0" d="M1928.767,316.106L1932.933,316.106C1937.1,316.106,1945.433,316.106,1959.714,316.106C1973.994,316.106,1994.222,316.106,2004.336,316.106L2014.45,316.106"/><path marker-end="url(#graph-div_flowchart-pointEnd)" style="fill:none;" class="edge-thickness-normal edge-pattern-solid flowchart-link LS-C1 LE-C2" id="L-C1-C2-0" d="M1248.517,468.887L1252.683,468.887C1256.85,468.887,1265.183,468.887,1278.849,475.284C1292.514,481.682,1311.512,494.477,1321.011,500.875L1330.51,507.272"/><path marker-end="url(#graph-div_flowchart-pointEnd)" style="fill:none;" class="edge-thickness-normal edge-pattern-solid flowchart-link LS-C2 LE-C3" id="L-C2-C3-0" d="M1429.2,529.733L1433.367,529.733C1437.533,529.733,1445.867,529.733,1454.2,529.733C1462.533,529.733,1470.867,529.733,1488.247,536.715C1505.627,543.698,1532.053,557.663,1545.266,564.645L1558.48,571.627"/><path marker-end="url(#graph-div_flowchart-pointEnd)" style="fill:none;" class="edge-thickness-normal edge-pattern-solid flowchart-link LS-C3 LE-C4" id="L-C3-C4-0" d="M1664.05,593.604L1673.531,593.604C1683.011,593.604,1701.972,593.604,1715.619,593.604C1729.267,593.604,1737.6,593.604,1745.24,593.604C1752.881,593.604,1759.828,593.604,1763.301,593.604L1766.775,593.604"/><path marker-end="url(#graph-div_flowchart-pointEnd)" style="fill:none;" class="edge-thickness-normal edge-pattern-solid flowchart-link LS-C4 LE-C5" id="L-C4-C5-0" d="M1927.625,593.604L1931.982,593.604C1936.339,593.604,1945.053,593.604,1952.693,593.604C1960.333,593.604,1966.9,593.604,1970.183,593.604L1973.467,593.604"/><path marker-end="url(#graph-div_flowchart-pointEnd)" style="fill:none;" class="edge-thickness-normal edge-pattern-solid flowchart-link LS-C5 LE-C6" id="L-C5-C6-0" d="M2149.4,593.604L2153.567,593.604C2157.733,593.604,2166.067,593.604,2174.4,593.604C2182.733,593.604,2191.067,593.604,2204.849,593.604C2218.631,593.604,2237.861,593.604,2247.476,593.604L2257.092,593.604"/><path marker-end="url(#graph-div_flowchart-pointEnd)" style="fill:none;" class="edge-thickness-normal edge-pattern-solid flowchart-link LS-D1 LE-D2" id="L-D1-D2-0" d="M1912.05,75.662L1919.003,75.662C1925.956,75.662,1939.861,75.662,1953.378,75.662C1966.894,75.662,1980.022,75.662,1986.586,75.662L1993.15,75.662"/><path marker-end="url(#graph-div_flowchart-pointEnd)" style="fill:none;" class="edge-thickness-normal edge-pattern-solid flowchart-link LS-D2 LE-D3" id="L-D2-D3-0" d="M2129.717,75.662L2137.164,75.662C2144.611,75.662,2159.506,75.662,2171.119,75.662C2182.733,75.662,2191.067,75.662,2198.522,76.022C2205.977,76.382,2212.554,77.102,2215.843,77.462L2219.131,77.822"/><path marker-end="url(#graph-div_flowchart-pointEnd)" style="fill:none;" class="edge-thickness-normal edge-pattern-solid flowchart-link LS-D3 LE-D4" id="L-D3-D4-0" d="M2357.167,85.662L2361.333,85.662C2365.5,85.662,2373.833,85.662,2382.167,85.662C2390.5,85.662,2398.833,85.662,2406.287,85.962C2413.741,86.262,2420.315,86.862,2423.602,87.162L2426.889,87.462"/><path marker-end="url(#graph-div_flowchart-pointEnd)" style="fill:none;" class="edge-thickness-normal edge-pattern-solid flowchart-link LS-D4 LE-D5" id="L-D4-D5-0" d="M2645.2,97.662L2649.367,97.662C2653.533,97.662,2661.867,97.662,2669.317,97.662C2676.767,97.662,2683.333,97.662,2686.617,97.662L2689.9,97.662"/><path marker-end="url(#graph-div_flowchart-pointEnd)" style="fill:none;" class="edge-thickness-normal edge-pattern-solid flowchart-link LS-D5 LE-D6" id="L-D5-D6-0" d="M2809.95,97.662L2814.117,97.662C2818.283,97.662,2826.617,97.662,2834.15,97.729C2841.684,97.795,2848.417,97.927,2851.784,97.993L2855.151,98.059"/><path marker-end="url(#graph-div_flowchart-pointEnd)" style="fill:none;" class="edge-thickness-normal edge-pattern-solid flowchart-link LS-D6 LE-D7" id="L-D6-D7-0" d="M2968.457,113.806L2977.036,116.657C2985.615,119.508,3002.774,125.21,3016.526,128.061C3030.278,130.912,3040.622,130.912,3045.794,130.912L3050.967,130.912"/><path marker-end="url(#graph-div_flowchart-pointEnd)" style="fill:none;" class="edge-thickness-normal edge-pattern-solid flowchart-link LS-D6 LE-D8" id="L-D6-D8-0" d="M2968.457,82.519L2977.036,79.501C2985.615,76.484,3002.774,70.448,3029.837,67.43C3056.9,64.412,3093.867,64.412,3128.944,64.412C3164.022,64.412,3197.211,64.412,3218.742,66.377C3240.272,68.342,3250.144,72.272,3255.08,74.237L3260.016,76.202"/><path marker-end="url(#graph-div_flowchart-pointEnd)" style="fill:none;" class="edge-thickness-normal edge-pattern-solid flowchart-link LS-D7 LE-D8" id="L-D7-D8-0" d="M3205.4,130.912L3209.567,130.912C3213.733,130.912,3222.067,130.912,3231.169,128.948C3240.272,126.983,3250.144,123.053,3255.08,121.088L3260.016,119.123"/><path marker-end="url(#graph-div_flowchart-pointEnd)" style="fill:none;" class="edge-thickness-normal edge-pattern-solid flowchart-link LS-D8 LE-D9" id="L-D8-D9-0" d="M3372.45,97.662L3376.617,97.662C3380.783,97.662,3389.117,97.662,3396.567,97.662C3404.017,97.662,3410.583,97.662,3413.867,97.662L3417.15,97.662"/><path marker-end="url(#graph-div_flowchart-pointEnd)" style="fill:none;" class="edge-thickness-normal edge-pattern-solid flowchart-link LS-D9 LE-D10" id="L-D9-D10-0" d="M3529.783,97.662L3533.95,97.662C3538.117,97.662,3546.45,97.662,3553.9,97.662C3561.35,97.662,3567.917,97.662,3571.2,97.662L3574.483,97.662"/><path marker-end="url(#graph-div_flowchart-pointEnd)" style="fill:none;" class="edge-thickness-normal edge-pattern-solid flowchart-link LS-D10 LE-D11" id="L-D10-D11-0" d="M3650.883,97.662L3655.05,97.662C3659.217,97.662,3667.55,97.662,3675,97.662C3682.45,97.662,3689.017,97.662,3692.3,97.662L3695.583,97.662"/><path marker-end="url(#graph-div_flowchart-pointEnd)" style="fill:none;stroke-width:2px;stroke-dasharray:3;" class="edge-thickness-normal edge-pattern-dotted flowchart-link LS-A5 LE-C1" id="L-A5-C1-0" d="M1006.95,431.55L1018.697,437.773C1030.444,443.996,1053.939,456.441,1069.853,462.664C1085.767,468.887,1094.1,468.887,1102.433,468.887C1110.767,468.887,1119.1,468.887,1126.55,468.887C1134,468.887,1140.567,468.887,1143.85,468.887L1147.133,468.887"/><path marker-end="url(#graph-div_flowchart-pointEnd)" style="fill:none;stroke-width:2px;stroke-dasharray:3;" class="edge-thickness-normal edge-pattern-dotted flowchart-link LS-A6 LE-C2" id="L-A6-C2-0" d="M1052.433,556.983L1056.6,556.983C1060.767,556.983,1069.1,556.983,1077.433,556.983C1085.767,556.983,1094.1,556.983,1102.433,556.983C1110.767,556.983,1119.1,556.983,1135.44,556.983C1151.781,556.983,1176.128,556.983,1200.475,556.983C1224.822,556.983,1249.169,556.983,1264.78,555.947C1280.39,554.91,1287.263,552.837,1290.699,551.8L1294.136,550.764"/><path marker-end="url(#graph-div_flowchart-pointEnd)" style="fill:none;stroke-width:2px;stroke-dasharray:3;" class="edge-thickness-normal edge-pattern-dotted flowchart-link LS-A7 LE-C3" id="L-A7-C3-0" d="M1035.983,684.724L1042.892,684.724C1049.8,684.724,1063.617,684.724,1074.692,684.724C1085.767,684.724,1094.1,684.724,1102.433,684.724C1110.767,684.724,1119.1,684.724,1135.44,684.724C1151.781,684.724,1176.128,684.724,1200.475,684.724C1224.822,684.724,1249.169,684.724,1276.4,684.724C1303.631,684.724,1333.744,684.724,1363.858,684.724C1393.972,684.724,1424.086,684.724,1443.31,684.724C1462.533,684.724,1470.867,684.724,1490.161,673.319C1509.456,661.914,1539.713,639.104,1554.841,627.699L1569.969,616.294"/><path marker-end="url(#graph-div_flowchart-pointEnd)" style="fill:none;stroke-width:2px;stroke-dasharray:3;" class="edge-thickness-normal edge-pattern-dotted flowchart-link LS-B3 LE-D3" id="L-B3-D3-0" d="M2108.417,316.106L2119.414,316.106C2130.411,316.106,2152.406,316.106,2167.569,286.115C2182.733,256.125,2191.067,196.144,2200.191,163.414C2209.314,130.684,2219.229,125.205,2224.186,122.465L2229.143,119.726"/><path marker-end="url(#graph-div_flowchart-pointEnd)" style="fill:none;stroke-width:2px;stroke-dasharray:3;" class="edge-thickness-normal edge-pattern-dotted flowchart-link LS-C6 LE-D4" id="L-C6-D4-0" d="M2319.175,593.604L2329.674,593.604C2340.172,593.604,2361.169,593.604,2375.835,519.363C2390.5,445.123,2398.833,296.643,2410.422,219.553C2422.011,142.462,2436.856,136.762,2444.278,133.912L2451.7,131.062"/><path marker-end="url(#graph-div_flowchart-pointEnd)" style="fill:none;" class="edge-thickness-normal edge-pattern-solid flowchart-link LS-A5 LE-Phase2" id="L-A5-Phase2-0" d="M1006.95,394.036L1018.697,385.589C1030.444,377.142,1053.939,360.249,1069.853,351.802C1085.767,343.356,1094.1,343.356,1102.433,343.356C1110.767,343.356,1119.1,343.356,1135.44,343.356C1151.781,343.356,1176.128,343.356,1200.475,343.356C1224.822,343.356,1249.169,343.356,1276.4,343.356C1303.631,343.356,1333.744,343.356,1363.858,343.356C1393.972,343.356,1424.086,343.356,1443.31,343.356C1462.533,343.356,1470.867,343.356,1474.15,343.356C1477.433,343.356,1475.667,343.356,1474.783,343.356L1473.9,343.356"/></g><g class="edgeLabels"><g class="edgeLabel"><g transform="translate(0, 0)" class="label"><foreignObject height="0" width="0"><div xmlns="http://www.w3.org/1999/xhtml" style="display: inline-block; white-space: nowrap;"><span class="edgeLabel"></span></div></foreignObject></g></g><g class="edgeLabel"><g transform="translate(0, 0)" class="label"><foreignObject height="0" width="0"><div xmlns="http://www.w3.org/1999/xhtml" style="display: inline-block; white-space: nowrap;"><span class="edgeLabel"></span></div></foreignObject></g></g><g class="edgeLabel"><g transform="translate(0, 0)" class="label"><foreignObject height="0" width="0"><div xmlns="http://www.w3.org/1999/xhtml" style="display: inline-block; white-space: nowrap;"><span class="edgeLabel"></span></div></foreignObject></g></g><g class="edgeLabel"><g transform="translate(0, 0)" class="label"><foreignObject height="0" width="0"><div xmlns="http://www.w3.org/1999/xhtml" style="display: inline-block; white-space: nowrap;"><span class="edgeLabel"></span></div></foreignObject></g></g><g class="edgeLabel"><g transform="translate(0, 0)" class="label"><foreignObject height="0" width="0"><div xmlns="http://www.w3.org/1999/xhtml" style="display: inline-block; white-space: nowrap;"><span class="edgeLabel"></span></div></foreignObject></g></g><g class="edgeLabel"><g transform="translate(0, 0)" class="label"><foreignObject height="0" width="0"><div xmlns="http://www.w3.org/1999/xhtml" style="display: inline-block; white-space: nowrap;"><span class="edgeLabel"></span></div></foreignObject></g></g><g class="edgeLabel"><g transform="translate(0, 0)" class="label"><foreignObject height="0" width="0"><div xmlns="http://www.w3.org/1999/xhtml" style="display: inline-block; white-space: nowrap;"><span class="edgeLabel"></span></div></foreignObject></g></g><g class="edgeLabel"><g transform="translate(0, 0)" class="label"><foreignObject height="0" width="0"><div xmlns="http://www.w3.org/1999/xhtml" style="display: inline-block; white-space: nowrap;"><span class="edgeLabel"></span></div></foreignObject></g></g><g class="edgeLabel"><g transform="translate(0, 0)" class="label"><foreignObject height="0" width="0"><div xmlns="http://www.w3.org/1999/xhtml" style="display: inline-block; white-space: nowrap;"><span class="edgeLabel"></span></div></foreignObject></g></g><g class="edgeLabel"><g transform="translate(0, 0)" class="label"><foreignObject height="0" width="0"><div xmlns="http://www.w3.org/1999/xhtml" style="display: inline-block; white-space: nowrap;"><span class="edgeLabel"></span></div></foreignObject></g></g><g class="edgeLabel"><g transform="translate(0, 0)" class="label"><foreignObject height="0" width="0"><div xmlns="http://www.w3.org/1999/xhtml" style="display: inline-block; white-space: nowrap;"><span class="edgeLabel"></span></div></foreignObject></g></g><g class="edgeLabel"><g transform="translate(0, 0)" class="label"><foreignObject height="0" width="0"><div xmlns="http://www.w3.org/1999/xhtml" style="display: inline-block; white-space: nowrap;"><span class="edgeLabel"></span></div></foreignObject></g></g><g class="edgeLabel"><g transform="translate(0, 0)" class="label"><foreignObject height="0" width="0"><div xmlns="http://www.w3.org/1999/xhtml" style="display: inline-block; white-space: nowrap;"><span class="edgeLabel"></span></div></foreignObject></g></g><g class="edgeLabel"><g transform="translate(0, 0)" class="label"><foreignObject height="0" width="0"><div xmlns="http://www.w3.org/1999/xhtml" style="display: inline-block; white-space: nowrap;"><span class="edgeLabel"></span></div></foreignObject></g></g><g class="edgeLabel"><g transform="translate(0, 0)" class="label"><foreignObject height="0" width="0"><div xmlns="http://www.w3.org/1999/xhtml" style="display: inline-block; white-space: nowrap;"><span class="edgeLabel"></span></div></foreignObject></g></g><g class="edgeLabel"><g transform="translate(0, 0)" class="label"><foreignObject height="0" width="0"><div xmlns="http://www.w3.org/1999/xhtml" style="display: inline-block; white-space: nowrap;"><span class="edgeLabel"></span></div></foreignObject></g></g><g class="edgeLabel"><g transform="translate(0, 0)" class="label"><foreignObject height="0" width="0"><div xmlns="http://www.w3.org/1999/xhtml" style="display: inline-block; white-space: nowrap;"><span class="edgeLabel"></span></div></foreignObject></g></g><g class="edgeLabel"><g transform="translate(0, 0)" class="label"><foreignObject height="0" width="0"><div xmlns="http://www.w3.org/1999/xhtml" style="display: inline-block; white-space: nowrap;"><span class="edgeLabel"></span></div></foreignObject></g></g><g transform="translate(3019.9333419799805, 130.9124984741211)" class="edgeLabel"><g transform="translate(-11.333335876464844, -12)" class="label"><foreignObject height="24" width="22.666671752929688"><div xmlns="http://www.w3.org/1999/xhtml" style="display: inline-block; white-space: nowrap;"><span class="edgeLabel">Yes</span></div></foreignObject></g></g><g transform="translate(3130.8333435058594, 64.4124984741211)" class="edgeLabel"><g transform="translate(-9.400001525878906, -12)" class="label"><foreignObject height="24" width="18.800003051757812"><div xmlns="http://www.w3.org/1999/xhtml" style="display: inline-block; white-space: nowrap;"><span class="edgeLabel">No</span></div></foreignObject></g></g><g class="edgeLabel"><g transform="translate(0, 0)" class="label"><foreignObject height="0" width="0"><div xmlns="http://www.w3.org/1999/xhtml" style="display: inline-block; white-space: nowrap;"><span class="edgeLabel"></span></div></foreignObject></g></g><g class="edgeLabel"><g transform="translate(0, 0)" class="label"><foreignObject height="0" width="0"><div xmlns="http://www.w3.org/1999/xhtml" style="display: inline-block; white-space: nowrap;"><span class="edgeLabel"></span></div></foreignObject></g></g><g class="edgeLabel"><g transform="translate(0, 0)" class="label"><foreignObject height="0" width="0"><div xmlns="http://www.w3.org/1999/xhtml" style="display: inline-block; white-space: nowrap;"><span class="edgeLabel"></span></div></foreignObject></g></g><g class="edgeLabel"><g transform="translate(0, 0)" class="label"><foreignObject height="0" width="0"><div xmlns="http://www.w3.org/1999/xhtml" style="display: inline-block; white-space: nowrap;"><span class="edgeLabel"></span></div></foreignObject></g></g><g class="edgeLabel"><g transform="translate(0, 0)" class="label"><foreignObject height="0" width="0"><div xmlns="http://www.w3.org/1999/xhtml" style="display: inline-block; white-space: nowrap;"><span class="edgeLabel"></span></div></foreignObject></g></g><g class="edgeLabel"><g transform="translate(0, 0)" class="label"><foreignObject height="0" width="0"><div xmlns="http://www.w3.org/1999/xhtml" style="display: inline-block; white-space: nowrap;"><span class="edgeLabel"></span></div></foreignObject></g></g><g class="edgeLabel"><g transform="translate(0, 0)" class="label"><foreignObject height="0" width="0"><div xmlns="http://www.w3.org/1999/xhtml" style="display: inline-block; white-space: nowrap;"><span class="edgeLabel"></span></div></foreignObject></g></g><g class="edgeLabel"><g transform="translate(0, 0)" class="label"><foreignObject height="0" width="0"><div xmlns="http://www.w3.org/1999/xhtml" style="display: inline-block; white-space: nowrap;"><span class="edgeLabel"></span></div></foreignObject></g></g><g class="edgeLabel"><g transform="translate(0, 0)" class="label"><foreignObject height="0" width="0"><div xmlns="http://www.w3.org/1999/xhtml" style="display: inline-block; white-space: nowrap;"><span class="edgeLabel"></span></div></foreignObject></g></g><g class="edgeLabel"><g transform="translate(0, 0)" class="label"><foreignObject height="0" width="0"><div xmlns="http://www.w3.org/1999/xhtml" style="display: inline-block; white-space: nowrap;"><span class="edgeLabel"></span></div></foreignObject></g></g></g><g class="nodes"><g transform="translate(2064.0833435058594, 75.6624984741211)" data-id="D2" data-node="true" id="flowchart-D2-2169" class="node default default flowchart-label"><rect height="39" width="131.26666259765625" y="-19.5" x="-65.63333129882812" ry="0" rx="0" style="" class="basic label-container"/><g transform="translate(-58.133331298828125, -12)" style="" class="label"><rect/><foreignObject height="24" width="116.26666259765625"><div xmlns="http://www.w3.org/1999/xhtml" style="display: inline-block; white-space: nowrap;"><span class="nodeLabel">Embed Question</span></div></foreignObject></g></g><g transform="translate(1849.8500137329102, 75.6624984741211)" data-id="D1" data-node="true" id="flowchart-D1-2168" class="node default default flowchart-label"><rect height="39" width="124.39999389648438" y="-19.5" x="-62.19999694824219" ry="19.5" rx="19.5" style=""/><g transform="translate(-49.82499694824219, -12)" style="" class="label"><rect/><foreignObject height="24" width="99.64999389648438"><div xmlns="http://www.w3.org/1999/xhtml" style="display: inline-block; white-space: nowrap;"><span class="nodeLabel">User Question</span></div></foreignObject></g></g><g transform="translate(2290.7833404541016, 85.6624984741211)" data-id="D3" data-node="true" id="flowchart-D3-2171" class="node default default flowchart-label"><rect height="63" width="132.76666259765625" y="-31.5" x="-66.38333129882812" ry="0" rx="0" style="" class="basic label-container"/><g transform="translate(-58.883331298828125, -24)" style="" class="label"><rect/><foreignObject height="48" width="117.76666259765625"><div xmlns="http://www.w3.org/1999/xhtml" style="display: inline-block; white-space: nowrap;"><span class="nodeLabel">1· Vector Search<br />ChromaDB top-K</span></div></foreignObject></g></g><g transform="translate(2538.6833419799805, 97.6624984741211)" data-id="D4" data-node="true" id="flowchart-D4-2173" class="node default default flowchart-label"><rect height="63" width="213.03334045410156" y="-31.5" x="-106.51667022705078" ry="0" rx="0" style="" class="basic label-container"/><g transform="translate(-99.01667022705078, -24)" style="" class="label"><rect/><foreignObject height="48" width="198.03334045410156"><div xmlns="http://www.w3.org/1999/xhtml" style="display: inline-block; white-space: nowrap;"><span class="nodeLabel">2· Graph Expansion<br />Neo4j 1-hop + Communities</span></div></foreignObject></g></g><g transform="translate(2752.5750122070312, 97.6624984741211)" data-id="D5" data-node="true" id="flowchart-D5-2175" class="node default default flowchart-label"><rect height="39" width="114.75" y="-19.5" x="-57.375" ry="0" rx="0" style="" class="basic label-container"/><g transform="translate(-49.875, -12)" style="" class="label"><rect/><foreignObject height="24" width="99.75"><div xmlns="http://www.w3.org/1999/xhtml" style="display: inline-block; white-space: nowrap;"><span class="nodeLabel">3· Merge Docs</span></div></foreignObject></g></g><g transform="translate(2921.7750091552734, 97.6624984741211)" data-id="D6" data-node="true" id="flowchart-D6-2177" class="node default default flowchart-label"><polygon style="" transform="translate(-61.82499694824219,61.82499694824219)" class="label-container" points="61.82499694824219,0 123.64999389648438,-61.82499694824219 61.82499694824219,-123.64999389648438 0,-61.82499694824219"/><g transform="translate(-34.82499694824219, -12)" style="" class="label"><rect/><foreignObject height="24" width="69.64999389648438"><div xmlns="http://www.w3.org/1999/xhtml" style="display: inline-block; white-space: nowrap;"><span class="nodeLabel">Reranker?</span></div></foreignObject></g></g><g transform="translate(3130.8333435058594, 130.9124984741211)" data-id="D7" data-node="true" id="flowchart-D7-2179" class="node default default flowchart-label"><rect height="39" width="149.13333129882812" y="-19.5" x="-74.56666564941406" ry="0" rx="0" style="" class="basic label-container"/><g transform="translate(-67.06666564941406, -12)" style="" class="label"><rect/><foreignObject height="24" width="134.13333129882812"><div xmlns="http://www.w3.org/1999/xhtml" style="display: inline-block; white-space: nowrap;"><span class="nodeLabel">BGE Cross-Encoder</span></div></foreignObject></g></g><g transform="translate(3313.9250106811523, 97.6624984741211)" data-id="D8" data-node="true" id="flowchart-D8-2181" class="node default default flowchart-label"><rect height="39" width="117.05000305175781" y="-19.5" x="-58.525001525878906" ry="0" rx="0" style="" class="basic label-container"/><g transform="translate(-51.025001525878906, -12)" style="" class="label"><rect/><foreignObject height="24" width="102.05000305175781"><div xmlns="http://www.w3.org/1999/xhtml" style="display: inline-block; white-space: nowrap;"><span class="nodeLabel">Top-N Context</span></div></foreignObject></g></g><g transform="translate(3476.1166763305664, 97.6624984741211)" data-id="D9" data-node="true" id="flowchart-D9-2185" class="node default default flowchart-label"><rect height="39" width="107.33332824707031" y="-19.5" x="-53.666664123535156" ry="0" rx="0" style="" class="basic label-container"/><g transform="translate(-46.166664123535156, -12)" style="" class="label"><rect/><foreignObject height="24" width="92.33332824707031"><div xmlns="http://www.w3.org/1999/xhtml" style="display: inline-block; white-space: nowrap;"><span class="nodeLabel">Build Prompt</span></div></foreignObject></g></g><g transform="translate(3615.3333435058594, 97.6624984741211)" data-id="D10" data-node="true" id="flowchart-D10-2187" class="node default default flowchart-label"><circle height="39" width="71.10000610351562" r="35.55000305175781" ry="0" rx="0" style=""/><g transform="translate(-28.050003051757812, -12)" style="" class="label"><rect/><foreignObject height="24" width="56.100006103515625"><div xmlns="http://www.w3.org/1999/xhtml" style="display: inline-block; white-space: nowrap;"><span class="nodeLabel">Llama 4</span></div></foreignObject></g></g><g transform="translate(3745.933349609375, 97.6624984741211)" data-id="D11" data-node="true" id="flowchart-D11-2189" class="node default default flowchart-label"><rect height="39" width="90.10000610351562" y="-19.5" x="-45.05000305175781" ry="19.5" rx="19.5" style=""/><g transform="translate(-32.67500305175781, -12)" style="" class="label"><rect/><foreignObject height="24" width="65.35000610351562"><div xmlns="http://www.w3.org/1999/xhtml" style="display: inline-block; white-space: nowrap;"><span class="nodeLabel">Response</span></div></foreignObject></g></g><g transform="translate(1363.8583450317383, 529.733097076416)" data-id="C2" data-node="true" id="flowchart-C2-2159" class="node default default flowchart-label"><rect height="39" width="130.68333435058594" y="-19.5" x="-65.34166717529297" ry="0" rx="0" style="" class="basic label-container"/><g transform="translate(-57.84166717529297, -12)" style="" class="label"><rect/><foreignObject height="24" width="115.68333435058594"><div xmlns="http://www.w3.org/1999/xhtml" style="display: inline-block; white-space: nowrap;"><span class="nodeLabel">CHILD_OF edges</span></div></foreignObject></g></g><g transform="translate(1200.4750137329102, 468.8866195678711)" data-id="C1" data-node="true" id="flowchart-C1-2158" class="node default default flowchart-label"><rect height="39" width="96.08332824707031" y="-19.5" x="-48.041664123535156" ry="0" rx="0" style="" class="basic label-container"/><g transform="translate(-40.541664123535156, -12)" style="" class="label"><rect/><foreignObject height="24" width="81.08332824707031"><div xmlns="http://www.w3.org/1999/xhtml" style="display: inline-block; white-space: nowrap;"><span class="nodeLabel">Page Nodes</span></div></foreignObject></g></g><g transform="translate(1600.0666809082031, 593.6036758422852)" data-id="C3" data-node="true" id="flowchart-C3-2161" class="node default default flowchart-label"><rect height="39" width="127.96665954589844" y="-19.5" x="-63.98332977294922" ry="0" rx="0" style="" class="basic label-container"/><g transform="translate(-56.48332977294922, -12)" style="" class="label"><rect/><foreignObject height="24" width="112.96665954589844"><div xmlns="http://www.w3.org/1999/xhtml" style="display: inline-block; white-space: nowrap;"><span class="nodeLabel">LINKS_TO edges</span></div></foreignObject></g></g><g transform="translate(1849.8500137329102, 593.6036758422852)" data-id="C4" data-node="true" id="flowchart-C4-2163" class="node default default flowchart-label"><rect height="63" width="155.5500030517578" y="-31.5" x="-77.7750015258789" ry="0" rx="0" style="" class="basic label-container"/><g transform="translate(-70.2750015258789, -24)" style="" class="label"><rect/><foreignObject height="48" width="140.5500030517578"><div xmlns="http://www.w3.org/1999/xhtml" style="display: inline-block; white-space: nowrap;"><span class="nodeLabel">Llama4<br />Entities &amp; Relations</span></div></foreignObject></g></g><g transform="translate(2064.0833435058594, 593.6036758422852)" data-id="C5" data-node="true" id="flowchart-C5-2165" class="node default default flowchart-label"><rect height="39" width="170.63333129882812" y="-19.5" x="-85.31666564941406" ry="0" rx="0" style="" class="basic label-container"/><g transform="translate(-77.81666564941406, -12)" style="" class="label"><rect/><foreignObject height="24" width="155.63333129882812"><div xmlns="http://www.w3.org/1999/xhtml" style="display: inline-block; white-space: nowrap;"><span class="nodeLabel">Community Detection</span></div></foreignObject></g></g><g transform="translate(2290.7833404541016, 593.6036758422852)" data-id="C6" data-node="true" id="flowchart-C6-2167" class="node default default flowchart-label"><path transform="translate(-28.39167022705078,-31.21380865655538)" d="M 0,7.80920577103692 a 28.39167022705078,7.80920577103692 0,0,0 56.78334045410156 0 a 28.39167022705078,7.80920577103692 0,0,0 -56.78334045410156 0 l 0,46.80920577103692 a 28.39167022705078,7.80920577103692 0,0,0 56.78334045410156 0 l 0,-46.80920577103692" style=""/><g transform="translate(-20.89167022705078, -12)" style="" class="label"><rect/><foreignObject height="24" width="41.78334045410156"><div xmlns="http://www.w3.org/1999/xhtml" style="display: inline-block; white-space: nowrap;"><span class="nodeLabel">Neo4j</span></div></foreignObject></g></g><g transform="translate(1849.8500137329102, 316.10580825805664)" data-id="B2" data-node="true" id="flowchart-B2-2155" class="node default default flowchart-label"><rect height="39" width="157.8333282470703" y="-19.5" x="-78.91666412353516" ry="0" rx="0" style="" class="basic label-container"/><g transform="translate(-71.41666412353516, -12)" style="" class="label"><rect/><foreignObject height="24" width="142.8333282470703"><div xmlns="http://www.w3.org/1999/xhtml" style="display: inline-block; white-space: nowrap;"><span class="nodeLabel">Embed with bge-m3</span></div></foreignObject></g></g><g transform="translate(1600.0666809082031, 288.85580825805664)" data-id="B1" data-node="true" id="flowchart-B1-2154" class="node default default flowchart-label"><rect height="39" width="191.73333740234375" y="-19.5" x="-95.86666870117188" ry="0" rx="0" style="" class="basic label-container"/><g transform="translate(-88.36666870117188, -12)" style="" class="label"><rect/><foreignObject height="24" width="176.73333740234375"><div xmlns="http://www.w3.org/1999/xhtml" style="display: inline-block; white-space: nowrap;"><span class="nodeLabel">Clean &amp; Convert Schema</span></div></foreignObject></g></g><g transform="translate(2064.0833435058594, 316.10580825805664)" data-id="B3" data-node="true" id="flowchart-B3-2157" class="node default default flowchart-label"><path transform="translate(-44.333335876464844,-35.06162298713427)" d="M 0,10.37441532475618 a 44.333335876464844,10.37441532475618 0,0,0 88.66667175292969 0 a 44.333335876464844,10.37441532475618 0,0,0 -88.66667175292969 0 l 0,49.37441532475618 a 44.333335876464844,10.37441532475618 0,0,0 88.66667175292969 0 l 0,-49.37441532475618" style=""/><g transform="translate(-36.833335876464844, -12)" style="" class="label"><rect/><foreignObject height="24" width="73.66667175292969"><div xmlns="http://www.w3.org/1999/xhtml" style="display: inline-block; white-space: nowrap;"><span class="nodeLabel">ChromaDB</span></div></foreignObject></g></g><g transform="translate(259.3166732788086, 556.983097076416)" data-id="A2" data-node="true" id="flowchart-A2-2143" class="node default default flowchart-label"><rect height="39" width="177.8000030517578" y="-19.5" x="-88.9000015258789" ry="0" rx="0" style="" class="basic label-container"/><g transform="translate(-81.4000015258789, -12)" style="" class="label"><rect/><foreignObject height="24" width="162.8000030517578"><div xmlns="http://www.w3.org/1999/xhtml" style="display: inline-block; white-space: nowrap;"><span class="nodeLabel">Fetch Pages &amp; Content</span></div></foreignObject></g></g><g transform="translate(72.70833587646484, 556.983097076416)" data-id="A1" data-node="true" id="flowchart-A1-2142" class="node default default flowchart-label"><path transform="translate(-47.708335876464844,-35.73345984801762)" d="M 0,10.82230656534508 a 47.708335876464844,10.82230656534508 0,0,0 95.41667175292969 0 a 47.708335876464844,10.82230656534508 0,0,0 -95.41667175292969 0 l 0,49.82230656534508 a 47.708335876464844,10.82230656534508 0,0,0 95.41667175292969 0 l 0,-49.82230656534508" style=""/><g transform="translate(-40.208335876464844, -12)" style="" class="label"><rect/><foreignObject height="24" width="80.41667175292969"><div xmlns="http://www.w3.org/1999/xhtml" style="display: inline-block; white-space: nowrap;"><span class="nodeLabel">Confluence</span></div></foreignObject></g></g><g transform="translate(500.9583435058594, 556.983097076416)" data-id="A3" data-node="true" id="flowchart-A3-2145" class="node default default flowchart-label"><rect height="39" width="205.48333740234375" y="-19.5" x="-102.74166870117188" ry="0" rx="0" style="" class="basic label-container"/><g transform="translate(-95.24166870117188, -12)" style="" class="label"><rect/><foreignObject height="24" width="190.48333740234375"><div xmlns="http://www.w3.org/1999/xhtml" style="display: inline-block; white-space: nowrap;"><span class="nodeLabel">Filter 'internal_only' labels</span></div></foreignObject></g></g><g transform="translate(752.5416793823242, 556.983097076416)" data-id="A4" data-node="true" id="flowchart-A4-2147" class="node default default flowchart-label"><rect height="39" width="197.68333435058594" y="-19.5" x="-98.84166717529297" ry="0" rx="0" style="" class="basic label-container"/><g transform="translate(-91.34166717529297, -12)" style="" class="label"><rect/><foreignObject height="24" width="182.68333435058594"><div xmlns="http://www.w3.org/1999/xhtml" style="display: inline-block; white-space: nowrap;"><span class="nodeLabel">Extract Links &amp; Hierarchy</span></div></foreignObject></g></g><g transform="translate(976.9083480834961, 415.6366195678711)" data-id="A5" data-node="true" id="flowchart-A5-2149" class="node default default flowchart-label"><path transform="translate(-30.041664123535156,-31.673569767761087)" d="M 0,8.115713178507391 a 30.041664123535156,8.115713178507391 0,0,0 60.08332824707031 0 a 30.041664123535156,8.115713178507391 0,0,0 -60.08332824707031 0 l 0,47.11571317850739 a 30.041664123535156,8.115713178507391 0,0,0 60.08332824707031 0 l 0,-47.11571317850739" style=""/><g transform="translate(-22.541664123535156, -12)" style="" class="label"><rect/><foreignObject height="24" width="45.08332824707031"><div xmlns="http://www.w3.org/1999/xhtml" style="display: inline-block; white-space: nowrap;"><span class="nodeLabel">kb.csv</span></div></foreignObject></g></g><g transform="translate(976.9083480834961, 556.983097076416)" data-id="A6" data-node="true" id="flowchart-A6-2151" class="node default default flowchart-label"><path transform="translate(-75.5250015258789,-40.01938073472464)" d="M 0,13.679587156483095 a 75.5250015258789,13.679587156483095 0,0,0 151.0500030517578 0 a 75.5250015258789,13.679587156483095 0,0,0 -151.0500030517578 0 l 0,52.679587156483095 a 75.5250015258789,13.679587156483095 0,0,0 151.0500030517578 0 l 0,-52.679587156483095" style=""/><g transform="translate(-68.0250015258789, -12)" style="" class="label"><rect/><foreignObject height="24" width="136.0500030517578"><div xmlns="http://www.w3.org/1999/xhtml" style="display: inline-block; white-space: nowrap;"><span class="nodeLabel">page_hierarchy.csv</span></div></foreignObject></g></g><g transform="translate(976.9083480834961, 684.7242546081543)" data-id="A7" data-node="true" id="flowchart-A7-2153" class="node default default flowchart-label"><path transform="translate(-59.07499694824219,-37.72177619714193)" d="M 0,12.147850798094618 a 59.07499694824219,12.147850798094618 0,0,0 118.14999389648438 0 a 59.07499694824219,12.147850798094618 0,0,0 -118.14999389648438 0 l 0,51.147850798094616 a 59.07499694824219,12.147850798094618 0,0,0 118.14999389648438 0 l 0,-51.147850798094616" style=""/><g transform="translate(-51.57499694824219, -12)" style="" class="label"><rect/><foreignObject height="24" width="103.14999389648438"><div xmlns="http://www.w3.org/1999/xhtml" style="display: inline-block; white-space: nowrap;"><span class="nodeLabel">page_links.csv</span></div></foreignObject></g></g></g></g></g></g></svg>