<svg xmlns="http://www.w3.org/2000/svg" width="600" height="600"><path fill="#d92d2f" d="M79.5 46.9h6.1l2.4.1v2h5.3l3-.1C99 49 99 49 102 50v2h4v2l4 1v3h2v2h2c3.6 9.4 6 17.7 6.8 27.8 0 2.2 0 2.2 1.2 3.2q1.3 10 1 20h2l.4 3.1c.4 13.4.4 13.4 4.6 24.9l.6 8.6v2.4l.4 6h2l.3 2.7c.8 6.3 1.8 12.2 4 18.1q1.4 5.1 2.2 10.2l.5 2 2 1v-2h2v-2c1.8-2.3 2.8-3 5.7-3.7q1.2 0 2.3-.3v-2h2l1-3h2l1-3q4.7-3.2 10-5v-2c3-2 4.4-3 8-3v-2l5-1v-2c3-2 4.4-3 8-3v-2l6-1v-2l8-1v-2h5v-2l8-1v-2l4.8-1.5 2.7-.8c2.5-.7 2.5-.7 5.5-.7v-2l2.6-.4 3.3-.5 3.4-.6c2.6-.2 2.6-.2 3.7-1.5l7.4-1c5-.4 5-.4 9.6-2h13v-2c13.8-.8 27.4-1.3 41.3-.6l2.2.2c5.4.3 5.4.3 6.5 1.4a195 195 0 0 0 13.8 1.7L346 134l3.5.4q5.4 1 10.4 2.6 4 .6 8 1v2h5v2l11 1v2l8 1v2l2 .3q5.4 1.3 10.3 3.3l2 .7 4.7 1.7v2l8 3v2l5 1v2l1.8.4q3.2 1 6.2 2.6v2l2.1.8c3.3 1.4 6 3 8.9 5.2v2l5 1v2h2l4 5 2 1v2h2v2c3.3-1.7 3.3-1.7 3.7-5.1q0-1.5.3-2.9h2l-.1-3.5c0-3.7.6-6.9 1.6-10.5q.7-3.1 1-6.4c.5-3.6.5-3.6 1.5-4.6q.6-3.7 1-7.6l.3-2.1.7-5.3h2v-2c-.2-4.9.1-9.2 1.5-14q1-4.5 1.3-9.2c.2-1.8.2-1.8 1.2-2.8l.5-4.5.3-2.7q0-1.4.3-2.9l.2-2.8.7-7.1h2l-.1-2.1A71 71 0 0 1 486 60h2v-2l5-4 1-2h4v-2c3.1-1 5.4-1.1 8.7-1h5.3v-2h5.4l3.1-.1c2.5.1 2.5.1 3.5 1.1l9.8 1.4A20 20 0 0 1 541 52v2l1.8.3c4 1.3 5.8 4 8 7.6A15 15 0 0 1 552 70h2l.4 3.9.5 5 .3 2.6.3 2.5.2 2.2c.1 1.8.1 1.8 1.3 2.8l.4 9.2 1.2 41.2.1 3.7.1 3.1c.2 2.5.6 4.5 1.2 6.8l.1 7.4v2.1L560 185h2q1.2 33.4 1 67h2l.1 2.8.3 3.6.2 3.7.4 2.9 2 1v2h2c4 4.4 4 4.4 4 8h2c6.8 11.2 8.7 24 8 37h2c1.4 31.1 1.4 31.1 0 46h-2l.1 1.8q.3 14.3-6.1 27.2h-2l-.2 2.1c-1.6 6-5.6 9.7-9.8 13.9l-1 3h-2l-1 3h-2v2h-2l-1 3h-2l-1 3h-2v2h-3l-.2 1.7A45 45 0 0 1 534 449l-1 3h-2l-1 3h-2v2l-2 1-1.3 2.3c-1.9 3-4.2 5.2-6.7 7.7l-1 3h-2l-1 3h-2v2h-2l-.3 2.3c-.7 2.9-1.4 4-3.7 5.7h-2l-.2 1.8c-1 2.8-2.7 4.1-4.8 6.2l-1 3h-2v2c-1.4 1.6-1.4 1.6-3 3h-2l-1 3h-2v2c-1.4 1.6-1.4 1.6-3 3h-2l-1 3-6.5 3.5-2 1q-6 2.9-12.5 4.9-3 1-6.1 2.2A72 72 0 0 1 435 527v2l-11 1v2q-7.2 2.1-14.6 3.5c-2.6.5-2.6.5-5.7 1.5-9.2 2.5-18.6 3.2-28 3.8-2.6-.1-2.6-.1-3.7 1.2l-4 .5-2.4.3-5.2.5-2.4.2-2.2.2c-1.8.1-1.8.1-2.8 1.3l-8.4 1c-5.5.4-5.5.4-10.6 2l-7 .7c-2 .1-2 .1-3 1.3a182 182 0 0 1-47 0v-2h-1.9c-5.2.2-9.7-.2-14.8-1.5q-6-1.2-12.3-1.5v-2h-2c-5 0-10 0-15-1l-1-1-5.7-.4c-9.9-.6-19.6-2.1-29.3-3.6v-2l-11-1v-2l-2.9-.4c-6.6-1-13-2-19.1-4.6l-5-1v-2h-7v-2l-3.2-.4a36 36 0 0 1-8.8-2.6l-5-1v-2l-1.6-.4q-4.3-1-8.4-2.6l-1-2-2.2-1.3a46 46 0 0 1-8.6-7.2l-1.5-1.5-3.7-4v-3h-2v-2h-2c-4-4.4-4-4.4-4-8h-2v-2l-3-1v-2h-2l-3-5-1.7-1.6C85 471 85 471 85 468h-2c-1.6-1.4-1.6-1.4-3-3v-2l-3-1-3-5-2.7-2.6C69 452 69 452 69 449h-2c-1.6-1.4-1.6-1.4-3-3v-2h-2l-1-5h-2a39 39 0 0 1-6-19l-1.8-.3c-3.6-1.1-5.9-4-8.5-6.6l-1.6-1.6c-4.1-4.1-4.1-4.1-4.1-7.5h-2c-1.6-1.4-1.6-1.4-3-3v-2l-3-1a83 83 0 0 1-4-7.2l-1-2.2c-3.1-6.4-4.8-12.7-6-19.6l-.6-2.4a100 100 0 0 1-2-19c.1-3.6.1-3.6-1.4-6.6v-7h2v-4c-.2-8.6-.2-16.9 1.5-25.4q1-6.2 1.5-12.6h2l.2-3.9c.6-5.7 3-10.2 5.8-15.1h2l1-3h2v-2h2l1-8h2v-2.4q-.1-32.2 1-64.6h2v-2.9l-.1-21.7v-4c.1-3.4.1-3.4.6-5.2q.8-4 .8-8.1v-3.7l.2-3.9 1.2-41 .1-3.1C43 97 43 97 44 96l.5-8.1c.4-7.6.9-14.7 3.5-21.9h2l1-6h2l.8-2.4C55 55 55 55 57 54.2L59 54v-2c5-2.5 9.3-3.4 15-3.8 2.6-.3 2.7-1.2 5.5-1.3"/><path fill="#fcf8f8" d="M79.5 46.9h6.1l2.4.1v2h5.3l3-.1C99 49 99 49 102 50v2h4v2l4 1v3h2v2h2c3.6 9.4 6 17.7 6.8 27.8 0 2.2 0 2.2 1.2 3.2q1.3 10 1 20h2l.4 3.1c.4 13.4.4 13.4 4.6 24.9l.6 8.6v2.4l.4 6h2l.3 2.7c.8 6.3 1.8 12.2 4 18.1q1.4 5.1 2.2 10.2l.5 2 2 1v-2h2v-2c1.8-2.3 2.8-3 5.7-3.7q1.2 0 2.3-.3v-2h2l1-3h2l1-3q4.7-3.2 10-5v-2c3-2 4.4-3 8-3v-2l5-1v-2c3-2 4.4-3 8-3v-2l6-1v-2l8-1v-2h5v-2l8-1v-2l4.8-1.5 2.7-.8c2.5-.7 2.5-.7 5.5-.7v-2l2.6-.4 3.3-.5 3.4-.6c2.6-.2 2.6-.2 3.7-1.5l7.4-1c5-.4 5-.4 9.6-2h13v-2c13.8-.8 27.4-1.3 41.3-.6l2.2.2c5.4.3 5.4.3 6.5 1.4a195 195 0 0 0 13.8 1.7L346 134l3.5.4q5.4 1 10.4 2.6 4 .6 8 1v2h5v2l11 1v2l8 1v2l2 .3q5.4 1.3 10.3 3.3l2 .7 4.7 1.7v2l8 3v2l5 1v2l1.8.4q3.2 1 6.2 2.6v2l2.1.8c3.3 1.4 6 3 8.9 5.2v2l5 1v2h2l4 5 2 1v2h2v2c3.3-1.7 3.3-1.7 3.7-5.1q0-1.5.3-2.9h2l-.1-3.5c0-3.7.6-6.9 1.6-10.5q.7-3.1 1-6.4c.5-3.6.5-3.6 1.5-4.6q.6-3.7 1-7.6l.3-2.1.7-5.3h2v-2c-.2-4.9.1-9.2 1.5-14q1-4.5 1.3-9.2c.2-1.8.2-1.8 1.2-2.8l.5-4.5.3-2.7q0-1.4.3-2.9l.2-2.8.7-7.1h2l-.1-2.1A71 71 0 0 1 486 60h2v-2l5-4 1-2h4v-2c3.1-1 5.4-1.1 8.7-1h5.3v-2h5.4l3.1-.1c2.5.1 2.5.1 3.5 1.1l9.8 1.4A20 20 0 0 1 541 52v2l1.8.3c4 1.3 5.8 4 8 7.6A15 15 0 0 1 552 70h2l.4 3.9.5 5 .3 2.6.3 2.5.2 2.2c.1 1.8.1 1.8 1.3 2.8l.4 9.2 1.2 41.2.1 3.7.1 3.1c.2 2.5.6 4.5 1.2 6.8l.1 7.4v2.1L560 185h2q1.2 33.4 1 67h2l.1 2.8.3 3.6.2 3.7.4 2.9 2 1v2h2c4 4.4 4 4.4 4 8h2c6.8 11.2 8.7 24 8 37h2c1.4 31.1 1.4 31.1 0 46h-2l.1 1.8q.3 14.3-6.1 27.2h-2l-.2 2.1c-1.6 6-5.6 9.7-9.8 13.9l-1 3h-2l-1 3h-2v2h-2l-1 3h-2l-1 3h-2v2h-3l-.2 1.7A45 45 0 0 1 534 449l-1 3h-2l-1 3h-2v2l-2 1-1.3 2.3c-1.9 3-4.2 5.2-6.7 7.7l-1 3h-2l-1 3h-2v2h-2l-.3 2.3c-.7 2.9-1.4 4-3.7 5.7h-2l-.2 1.8c-1 2.8-2.7 4.1-4.8 6.2l-1 3h-2v2c-1.4 1.6-1.4 1.6-3 3h-2l-1 3h-2v2c-1.4 1.6-1.4 1.6-3 3h-2l-1 3-6.5 3.5-2 1q-6 2.9-12.5 4.9-3 1-6.1 2.2A72 72 0 0 1 435 527v2l-11 1v2q-7.2 2.1-14.6 3.5c-2.6.5-2.6.5-5.7 1.5-9.2 2.5-18.6 3.2-28 3.8-2.6-.1-2.6-.1-3.7 1.2l-4 .5-2.4.3-5.2.5-2.4.2-2.2.2c-1.8.1-1.8.1-2.8 1.3l-8.4 1c-5.5.4-5.5.4-10.6 2l-7 .7c-2 .1-2 .1-3 1.3a182 182 0 0 1-47 0v-2h-1.9c-5.2.2-9.7-.2-14.8-1.5q-6-1.2-12.3-1.5v-2h-2c-5 0-10 0-15-1l-1-1-5.7-.4c-9.9-.6-19.6-2.1-29.3-3.6v-2l-11-1v-2l-2.9-.4c-6.6-1-13-2-19.1-4.6l-5-1v-2h-7v-2l-3.2-.4a36 36 0 0 1-8.8-2.6l-5-1v-2l-1.6-.4q-4.3-1-8.4-2.6l-1-2-2.2-1.3a46 46 0 0 1-8.6-7.2l-1.5-1.5-3.7-4v-3h-2v-2h-2c-4-4.4-4-4.4-4-8h-2v-2l-3-1v-2h-2l-3-5-1.7-1.6C85 471 85 471 85 468h-2c-1.6-1.4-1.6-1.4-3-3v-2l-3-1-3-5-2.7-2.6C69 452 69 452 69 449h-2c-1.6-1.4-1.6-1.4-3-3v-2h-2l-1-5h-2a39 39 0 0 1-6-19l-1.8-.3c-3.6-1.1-5.9-4-8.5-6.6l-1.6-1.6c-4.1-4.1-4.1-4.1-4.1-7.5h-2c-1.6-1.4-1.6-1.4-3-3v-2l-3-1a83 83 0 0 1-4-7.2l-1-2.2c-3.1-6.4-4.8-12.7-6-19.6l-.6-2.4a100 100 0 0 1-2-19c.1-3.6.1-3.6-1.4-6.6v-7h2v-4c-.2-8.6-.2-16.9 1.5-25.4q1-6.2 1.5-12.6h2l.2-3.9c.6-5.7 3-10.2 5.8-15.1h2l1-3h2v-2h2l1-8h2v-2.4q-.1-32.2 1-64.6h2v-2.9l-.1-21.7v-4c.1-3.4.1-3.4.6-5.2q.8-4 .8-8.1v-3.7l.2-3.9 1.2-41 .1-3.1C43 97 43 97 44 96l.5-8.1c.4-7.6.9-14.7 3.5-21.9h2l1-6h2l.8-2.4C55 55 55 55 57 54.2L59 54v-2c5-2.5 9.3-3.4 15-3.8 2.6-.3 2.7-1.2 5.5-1.3M230 167v2l-2.5.3q-5.8 1.3-11.5 3.7v2h-5v2l-6 1v2h-5v2l-8 4v2h-3v2l-5 1v2l-5 1v2h-3v2l-3 1v2l-1.7.8c-2.6 1.4-4.4 3-6.3 5.2v2l-5 1v2h-2l-1 5-5 1v2h-2l-1 5-1.9.3c-2.3.5-2.3.5-3.2 2.7l-.9 2-2 1v2h-2l-3 5c-1.1 1.6-1.1 1.6-3 3q-3.8.6-7.7.7h-2.1q-2.6.2-5.2.3v2h-3l-3 3-2.7 1.6-2.3 1.4v2h-3c-1.7 1.3-1.7 1.3-3 3v2l-5 1v2h-3v3h-3v2l-4 1v2h-3c-1.7 1.3-1.7 1.3-3 3v2l-3 1v2h-2c-1.7 1.3-1.7 1.3-3 3v2l-2 .3q-8.7 2.1-17 5.7v2l-4 1-1 5h-2c-4 11.7-3.5 23.8-3.4 36v21c0 7 1.2 13.3 3.4 20h2v3h2l.9 2.3c1 2.9 1 2.9 3.1 5.7h2v2c1.3 1.7 1.3 1.7 3 3h2l.3 2.3c.8 3 1.4 3.9 3.7 5.7l3 1 4 4v-2.3l.4-10.4.2-3.6c.7-21.3.7-21.3 2.8-28.7a135 135 0 0 0 3.2-15.7c.4-2.3.4-2.3 1.4-3.3v-5h2l.3-2c1-5.8 2.2-10.6 4.8-15.8q1.7-4.4 2.5-9.3c.4-1.9.4-1.9 1.4-4.9h2l1-8h2v-3h2l2-4.8 1.1-2.7c1-2.5 1-2.5.9-5.5h2v-3h2l1-5h2l1-5h4v7l-2 1-3 5.2-3 4.8v3h-2v3h-2l-1 5h-2l-1 8h-2l-1 3.4c-1 3.6-1 3.6-2 4.6v5h-2l-1 11h-2l-3 17.7a45 45 0 0 1-2.6 10.6c-3 7.9-2.6 16.3-2.6 24.6v3.7l-.1 27.1v9.9c.1 2.5.1 2.5 1.7 4.2 1.5 1.4 1.5 1.4 3.6 1.2l1 3h2l1 5h2v2l4 1 1 5h2l.8 1.9c1.2 2.4 1.2 2.4 4.2 4.1l1 4c1.4 1.8 1.4 1.8 3 3h2l1 3h2l1 5h2l1 5h2v2l2 .3 2 .7 1 3h2l1 5h2v2l2 1 2 5h2v2l5 1v2l5 1v2l3.4 1c3.6 1 3.6 1 4.6 2h5v2a61 61 0 0 0 19 4v2c3.3 2 6.4 2.5 10.1 3 5.7.9 5.7.9 7.9 2h6v2c4 1 7.8 1 12 1v2h20l.8-4.1 2.8-13q1.6-7.4 2.4-14.9h2l1-13h2l5.7-16.9.7-2c1-2.8 1.6-5 1.6-8.1h2l.8-2.4 1.2-3.6.7-2.2c1.1-3.7 2.2-7 4.5-10.2 2-2.5 2-2.5 1.8-5.6h2v-3h2c2.3-3.2 2.3-3.2 3-7l3-1v-4l2.3-.9c2.9-1 2.9-1 5.7-3.1v-2h3v-2l3.4-.4c3.4-.4 3.4-.4 5.6-1.6q2.2-.2 4.6-.3l2.7-.1 2.8-.2h2.9l7-.4v2l2.2.6 2.7.7 2.8.8 2.3.9 1 3h2l1 3h2v2h2l1 3h2l.8 2q2.3 5.6 5.2 11h2l3 8h2l1 8h2l1.4 6.1a28 28 0 0 0 3.6 10.4c2.5 4 3.1 8 4 12.5l2 8h2l.1 2.6.3 3.5.2 3.5c.4 3.4 1.2 6.2 2.4 9.4h2l1 13h2l1 8h21v-2l10-1v-2h6v-2h1.8c6-.5 11-1.8 16.6-4q5.2-1.9 10.6-3l3-1v-2l13-2v-2l3.3-.4c3-.5 5-1 7.7-2.6v-2l3-1v-2h2c1.7-1.3 1.7-1.3 3-3v-3h2l.3-2 .7-2 3-1v-2h2v-3h2c2.3-1.8 3-2.8 3.7-5.7q0-1.2.3-2.3h2v-2l3-1v-4l1.8-.7a21 21 0 0 0 6.2-5.3v-3h2l4-5 2-1v-4l3-1v-2l2-.7c2.2-1.1 2.2-1.1 2.8-3.4l.2-1.9h2c1.7-1.3 1.7-1.3 3-3v-2h2c1.7-3.3 1.2-7.1 1.1-10.8v-2.7a409 409 0 0 0-1.9-35.7q0-2.7-.3-5.3l-.2-2.5q-.6-7.5-2.3-14.8-.7-4.4-1-8.8l-.3-3.1-.1-2.3h-2l-.6-4-1-7.6c-.9-5.3-2-9.6-4.4-14.4h-2l-1-8h-2l-.3-2.1a42 42 0 0 0-3.3-8.7l-1.3-3-1.1-2.2h-2l-.2-2.1c-1.1-4-3-6-5.8-8.9h-2l-1-8h6l.3 2.1c.9 3.6 2.6 5.9 4.7 8.9l4 8h2l-.2 2c.4 5.4 3 10.1 5.9 14.8 1.4 2.4 1.9 4.4 2.3 7.2h2l.3 2c.8 4 1.4 7.4 3.2 11 1.7 3.4 2.3 6.4 3 10.1a274 274 0 0 0 3 15l1.3 5.4a201 201 0 0 1 3.6 37.1l.6 12.4h2v-2l3-1v-2h2v-2l3-1c1.5-1.7 1.5-1.7 2.9-3.7q3.5-5.1 8.1-9.3c2.6-2.6 2.5-4.5 3-8h2c4-10.4 3.2-22 3.1-33v-7.8q.1-12.3-.4-24.5l-.2-4A33 33 0 0 0 554 292h-2v-2c-2.5-3.4-6.1-4.6-10-6h-4v-2l-2.2-.6-2.7-.7-2.8-.8-2.3-.9-1-3h-4v-3h-3l-1-4-2-.3-2-.7-1-3c-3.2-2.3-3.2-2.3-7-3v-1.7c-1.4-3.2-3.3-4-6.2-5.6-2-.9-2-.9-4.8-.7l-.7-1.8a15 15 0 0 0-5.7-5.4l-2.4-1.6c-2.2-1.4-2.2-1.4-5.2-1.2v-2l-15-1v-2l-2.4-1.9c-2.8-2.3-3-2.8-3.6-6.1-1.4-1.8-1.4-1.8-3-3h-2v-2c-1.3-1.7-1.3-1.7-3-3h-2l-1-3h-2l-1-3h-2v-2h-2l-1-3h-2v-2c-1.3-1.7-1.3-1.7-3-3h-2l-1-3h-4l-1-3h-2l-1-3h-2v-2h-3v-2l-5-1v-2l-5-1v-2h-3v-2l-5-1v-2h-3v-2c-9-5-9-5-19-7v-2h-5v-2l-10-3c-.8 6.1 1.9 10 5 15h2l1 4h2l1 5h2c-1.2 5.1-2.6 8-6 12v3h-2l-.8 1.6-1 2.2-1.1 2.2c-1.1 2-1.1 2-3.1 5v3h-2l-1 5h-2c-1.5 2.2-1.5 2.2-3 5-2.8 4.9-2.8 4.9-5 6v3h-2l-1 5h-2c-2.7 3-3 3.8-3 8a25 25 0 0 1-7.7 1.3l-3 .1-3.1.2h-3.4q-20.4.7-40.9.5L259 254l-.9-2.4c-1-2.6-1-2.6-2.7-4.2s-2-3-2.4-5.4h-2v-3l-3-3-1.6-2.7-1.4-2.3h-2l-1-5h-2v-3c-1.3-1.7-1.3-1.7-3-3h-2v-3h-2l-1-5h-2l-1-5h-2l-.4-1.7q-1-3.3-2.6-6.3h-2v-11h2c2-3 3-4.4 3-8h2l1-5 3-1 1-7z"/><path fill="#fcfafa" d="M133.8 283c4.8.4 8.2 1.2 12.3 3.9 3 1.8 6.2 2.9 9.5 4.2q4.7 1.8 9.4 3.9v2l8 1v2h3v2l8 1v2l2.2.4a43 43 0 0 1 7.8 2.6v2l8 1v2l9 1v2h5v2l2.4.2 3 .2 3.1.3c2.5.3 2.5.3 3.5 1.3l5.3.9q6.4.9 12.6 2.7c12.3 3.1 25.4 2.5 38 2.5h31.8l26.3-.1v-2q8-1.7 16.1-3 5.2-.8 10.3-2.1c3.3-.8 6.1-1 9.6-.9v-2h6v-2c2.7-1.4 5-1 8-1v-2l8-1v-2h3v-2l4.8-2 2.7-1.1c2.5-.9 2.5-.9 5.5-.9v-2l3-.6c4.2-1.2 7.3-3.5 10.8-6.2 2.6-1.4 4.3-1.4 7.2-1.2v-2l6-1v-2l7-1v-2l9-1v3l3 1v2h2v6h2l1 5h2l1 8h2v5h2l2 19h2v8h2v8h2v18h-2l-.3 1.7q-1.2 4-3.7 7.3h-2v2h-2l-1 5-4 1-1 5h-2l-1 3h-2l-1 5h-2v2l-2 .3-2 .7-1 3h-2v2c-1.4 1.6-1.4 1.6-3 3h-2l-1 3h-2v2c-1.4 1.6-1.4 1.6-3 3h-2l-1 4-5 1v2c-1.8 2.3-2.8 3-5.7 3.7q-1.2 0-2.3.3v2h-11v-2l-2.7-.2c-3.8-1-5.3-2.3-8.3-4.8l-3.7-1.6-3.3-1.4-1-3c-2.4-1.2-2.4-1.2-5-2l-3-1v-2l-5-1v-2l-5-1v-2h-3v-2l-5-1v-2l-8-1v-2l-2.3-.4c-2.7-.6-2.7-.6-5.7-2.6v-2l-1.8-.4-6-1.8-2.2-.7-2.2-.7-2.3-.7-5.5-1.7v-2l-3.5.1c-3 .1-5.2-.3-8.2-1.1a48 48 0 0 0-14.5-1.3h-18.1c-4.3 0-7.7.9-11.7 2.3h-7v2l-3.8 1-5 1.4-2.5.7-2.5.7-2.2.6-5 1.6v2l-8 1v2h-3v2l-7 1v2l-6 1v2h-3v2l-5 1v2l-5 1v2h-3v2l-1.6.8-2.2 1-2.2 1.1c-2.2 1.2-2.2 1.2-5 3.1h-5v2c-5.7 3-5.7 3-8 3v2c-5.6 1.9-10.7 2-16.1-.3q-4-2.2-7.9-4.7v-2h-2l-1.7-1.7c-2-2-3.5-3-5.9-4.4-4.6-2.6-4.6-2.6-6.4-4.9v-2l-3-1v-2h-2c-1.6-1.4-1.6-1.4-3-3v-2l-3-1v-4l-3-1v-2h-1.7c-3.7-1.6-4.5-4.6-6.3-8l-2-1v-2h-2l-1-5h-3v-3h-2v-3h-2c-5.3-10.5-.5-28.4 3-39l1-2 .3-4c.5-4.5 1.8-8 3.8-12q1.5-3.4 1.9-7h2l.3-3.1c.7-3.9 1.8-6.5 3.7-9.9h2v-3h2l.4-2.4c.8-3.6.8-3.6 3.4-3.6"/><path fill="#040404" d="M79.5 46.9h6.1l2.4.1v2h5.3l3-.1C99 49 99 49 102 50v2h4v2l4 1v3h2v2h2c3.6 9.4 6 17.7 6.8 27.8 0 2.2 0 2.2 1.2 3.2q1.3 10 1 20h2l.4 3.1c.4 13.4.4 13.4 4.6 24.9l.6 8.6v2.4l.4 6h2l.3 2.7c.8 6.3 1.8 12.2 4 18.1q1.4 5.1 2.2 10.2l.5 2 2 1v-2h2v-2c1.8-2.3 2.8-3 5.7-3.7q1.2 0 2.3-.3v-2h2l1-3h2l1-3q4.7-3.2 10-5v-2c3-2 4.4-3 8-3v-2l5-1v-2c3-2 4.4-3 8-3v-2l6-1v-2l8-1v-2h5v-2l8-1v-2l4.8-1.5 2.7-.8c2.5-.7 2.5-.7 5.5-.7v-2l2.6-.4 3.3-.5 3.4-.6c2.6-.2 2.6-.2 3.7-1.5l7.4-1c5-.4 5-.4 9.6-2h13v-2c13.8-.8 27.4-1.3 41.3-.6l2.2.2c5.4.3 5.4.3 6.5 1.4a195 195 0 0 0 13.8 1.7L346 134l3.5.4q5.4 1 10.4 2.6 4 .6 8 1v2h5v2l11 1v2l8 1v2l2 .3q5.4 1.3 10.3 3.3l2 .7 4.7 1.7v2l8 3v2l5 1v2l1.8.4q3.2 1 6.2 2.6v2l2.1.8c3.3 1.4 6 3 8.9 5.2v2l5 1v2h2l4 5 2 1v2h2v2c3.3-1.7 3.3-1.7 3.7-5.1q0-1.5.3-2.9h2l-.1-3.5c0-3.7.6-6.9 1.6-10.5q.7-3.1 1-6.4c.5-3.6.5-3.6 1.5-4.6q.6-3.7 1-7.6l.3-2.1.7-5.3h2v-2c-.2-4.9.1-9.2 1.5-14q1-4.5 1.3-9.2c.2-1.8.2-1.8 1.2-2.8l.5-4.5.3-2.7q0-1.4.3-2.9l.2-2.8.7-7.1h2l-.1-2.1A71 71 0 0 1 486 60h2v-2l5-4 1-2h4v-2c3.1-1 5.4-1.1 8.7-1h5.3v-2h5.4l3.1-.1c2.5.1 2.5.1 3.5 1.1l9.8 1.4A20 20 0 0 1 541 52v2l1.8.3c4 1.3 5.8 4 8 7.6A15 15 0 0 1 552 70h2l.4 3.9.5 5 .3 2.6.3 2.5.2 2.2c.1 1.8.1 1.8 1.3 2.8l.4 9.2 1.2 41.2.1 3.7.1 3.1c.2 2.5.6 4.5 1.2 6.8l.1 7.4v2.1L560 185h2q1.2 33.4 1 67h2l.1 2.8.3 3.6.2 3.7.4 2.9 2 1v2h2c4 4.4 4 4.4 4 8h2c6.8 11.2 8.7 24 8 37h2c1.4 31.1 1.4 31.1 0 46h-2l.1 1.8q.3 14.3-6.1 27.2h-2l-.2 2.1c-1.6 6-5.6 9.7-9.8 13.9l-1 3h-2l-1 3h-2v2h-2l-1 3h-2l-1 3h-2v2h-3l-.2 1.7A45 45 0 0 1 534 449l-1 3h-2l-1 3h-2v2l-2 1-1.3 2.3c-1.9 3-4.2 5.2-6.7 7.7l-1 3h-2l-1 3h-2v2h-2l-.3 2.3c-.7 2.9-1.4 4-3.7 5.7h-2l-.2 1.8c-1 2.8-2.7 4.1-4.8 6.2l-1 3h-2v2c-1.4 1.6-1.4 1.6-3 3h-2l-1 3h-2v2c-1.4 1.6-1.4 1.6-3 3h-2l-1 3-6.5 3.5-2 1q-6 2.9-12.5 4.9-3 1-6.1 2.2A72 72 0 0 1 435 527v2l-11 1v2q-7.2 2.1-14.6 3.5c-2.6.5-2.6.5-5.7 1.5-9.2 2.5-18.6 3.2-28 3.8-2.6-.1-2.6-.1-3.7 1.2l-4 .5-2.4.3-5.2.5-2.4.2-2.2.2c-1.8.1-1.8.1-2.8 1.3l-8.4 1c-5.5.4-5.5.4-10.6 2l-7 .7c-2 .1-2 .1-3 1.3a182 182 0 0 1-47 0v-2h-1.9c-5.2.2-9.7-.2-14.8-1.5q-6-1.2-12.3-1.5v-2h-2c-5 0-10 0-15-1l-1-1-5.7-.4c-9.9-.6-19.6-2.1-29.3-3.6v-2l-11-1v-2l-2.9-.4c-6.6-1-13-2-19.1-4.6l-5-1v-2h-7v-2l-3.2-.4a36 36 0 0 1-8.8-2.6l-5-1v-2l-1.6-.4q-4.3-1-8.4-2.6l-1-2-2.2-1.3a46 46 0 0 1-8.6-7.2l-1.5-1.5-3.7-4v-3h-2v-2h-2c-4-4.4-4-4.4-4-8h-2v-2l-3-1v-2h-2l-3-5-1.7-1.6C85 471 85 471 85 468h-2c-1.6-1.4-1.6-1.4-3-3v-2l-3-1-3-5-2.7-2.6C69 452 69 452 69 449h-2c-1.6-1.4-1.6-1.4-3-3v-2h-2l-1-5h-2a39 39 0 0 1-6-19l-1.8-.3c-3.6-1.1-5.9-4-8.5-6.6l-1.6-1.6c-4.1-4.1-4.1-4.1-4.1-7.5h-2c-1.6-1.4-1.6-1.4-3-3v-2l-3-1a83 83 0 0 1-4-7.2l-1-2.2c-3.1-6.4-4.8-12.7-6-19.6l-.6-2.4a100 100 0 0 1-2-19c.1-3.6.1-3.6-1.4-6.6v-7h2v-4c-.2-8.6-.2-16.9 1.5-25.4q1-6.2 1.5-12.6h2l.2-3.9c.6-5.7 3-10.2 5.8-15.1h2l1-3h2v-2h2l1-8h2v-2.4q-.1-32.2 1-64.6h2v-2.9l-.1-21.7v-4c.1-3.4.1-3.4.6-5.2q.8-4 .8-8.1v-3.7l.2-3.9 1.2-41 .1-3.1C43 97 43 97 44 96l.5-8.1c.4-7.6.9-14.7 3.5-21.9h2l1-6h2l.8-2.4C55 55 55 55 57 54.2L59 54v-2c5-2.5 9.3-3.4 15-3.8 2.6-.3 2.7-1.2 5.5-1.3M61 58v2l-2 .6c-2.3 1.3-2.3 1.3-2.7 4.5L56 68h-2q-1.2 8.8-1 17.5V94h-2v30h-2q-1.2 32-1 64h-2v35h-2l-.6 17.3Q43 254.6 43 269h-3l-.4 2-.6 2-2 1v2l-5 1v4h-2l-.4 2-.5 2.4-.6 2.5C28 290 28 290 27 291v6h-2q-1.3 16-1 32h-2v16h2v11.5q-.2 7.8 1 15.5h2v5h2l1 8h2l.2 2.1c1.1 4 3 6 5.8 8.9h2l.8 2.2c2.3 5.3 6.1 8.7 10.5 12.4 1.7 1.4 1.7 1.4 3.2 3s1.5 1.7 4.5 1.4v2h2v3.6q0 5.4 1 10.4h2l1 5h2v2h2l1 3h2v2l2 1 1 5h3v3h3l.8 2.3c1.2 2.6 2 4 4.2 5.7h2l.8 2.2c1.3 3 3 5.3 5.2 7.8h2v3h2l1 3h2l1 5h2v3h3l1 3h2v5h4l1 3h2l1 4 2 .3 2 .7 1 3h2v2h3v3h5v2l10 2 1 3 10 1v2q8 2.1 16 3v2c4.8 1 9.2 1 14 1v2l8 1v2h8v2q8.8 1.3 17.5 1h8.5v2l19 1v2h8v2l19 1v2a214 214 0 0 0 33.2 1.1q11.5.2 22.8-1.1v-2h1.8q9.7.1 19.2-1v-2h8v-2h3.9q7.5 0 15.1-1v-2h3.6c11.7.1 11.7.1 23.4-1v-2h5v-2l13-1v-2h1.9c5.6-.5 9.8-1.6 15-4 3.3-1.5 6.5-1.7 10.1-2v-2l8-1v-2l13-3v-2l2.3-.4c2.9-.5 2.9-.5 5.7-2.6v-2l3-1v-2l3-1v-2h2v-2l3-1v-2l2-.7c2.2-1.1 2.2-1.1 2.8-3.4l.2-1.9h2c1.6-1.4 1.6-1.4 3.1-3.3l1.7-1.9c1.5-1.8 1.5-1.8 1.2-4.8l3-1v-2h2l1-5 4-1 1-5h2c1.7-1.3 1.7-1.3 3-3v-2h3v-5l1.8-.8c2.3-1.3 4.3-2.4 6.2-4.2v-4h2c1.6-1.4 1.6-1.4 3.1-3.3l1.7-1.9c1.5-1.8 1.5-1.8 1.2-4.8h2l1-8h2l1-9 5-2v-2l2-.8c2.3-1 2.3-1 3-4.2l3-1v-2l2-.7c2.2-1.1 2.2-1.1 2.8-3.4 0-1 0-1 .2-1.9h2v-2h3v-3h3v-5h2a43 43 0 0 0 6-24h2c1.1-18.8 1-37.2 0-56h-2v-11h-2l-.2-2.7-.2-3.6-.3-3.6c-.2-3.1-.2-3.1-1.3-6.1h-2v-2c-1.3-1.7-1.3-1.7-3-3h-2v-2c-2.3-3-4.4-3.4-8-4v-13.4l.1-2.8v-2.6c0-2.3 0-2.3-1.1-4.2l-.4-8.4-.6-22.8-.3-12-.7-23.8h-2v-2.4q.2-30.8-1-61.6h-2V86h-2v-2.4c.1-7.9.1-7.9-1-15.6h-2v-5h-3v-3h-2v-2c-7.5-3-14-3.5-22-3.4h-3.5c-6.5 0-11.5.6-17.5 3.4v5l-2 .4c-2 .4-2 .4-3 1.6v6h-2q-1.3 9-1 18h-2l-1 22h-2v8h-2l-1 18h-2l-1 19h-2v8h-2l-1 16h-2a69 69 0 0 0-3 27c-4.3-1.4-6.1-4.4-8.2-8.3l-.8-1.7h-2v-3l-2.2-.2c-3.6-1-4.6-2.9-6.8-5.8h-2v-3h-2v-2l-2.4-.8-2.6-1.2-1-3h-5v-3h-5l-1-3h-3v-2l-6.7-3.8c-2.4-1.3-2.4-1.3-5.3-2.2v-2l-8-1v-2h-3v-2l-8-1v-2a70 70 0 0 0-11-3v-2l-13-1v-2a42 42 0 0 0-19-3v-2c-7-1.1-14-1.1-21-1v-2l-3.4-.2-4.5-.2-2.2-.2c-5.7-.3-5.7-.3-7.9-1.4l-5.6-.1h-16.9c-2.5 0-2.5 0-4.5 1.1q-2.1.2-4.4.3l-2.5.1-2.7.2h-2.7l-6.7.4v2l-18 1v2h-6v2l-11 1v2l-8 1v2h-5v2h-2.9c-3-.2-3-.2-5.1 1v2l-2.3-.1c-3-.1-3-.1-5.7 2.1q-4 1.2-8 2v2h-3v2l-5 1v2h-2v2l-4 1v2l-10 3v3h-3v2l-4 1-1 4h-2l-1.9 1.9c-2.1 2.1-2.1 2.1-4 3a14 14 0 0 0-5 4.5 50 50 0 0 1-8.1 7.6v2h-3l-1-8h-2v-5h-2l-1-16h-2l-1-14h-2v-8h-2l-1-18h-2l-1-19h-2v-8h-2v-1.8q.1-10.1-1-20.2h-2l.1-1.7c.4-8.5-1.3-17.2-6.1-24.3h-2v-2a46 46 0 0 0-21.5-3.4h-3.6A39 39 0 0 0 61 58"/><path fill="#d92c2e" d="M315 396c3.2 1.5 3.2 1.5 5 3v2l3 1v2h2c2.6 2.1 3.2 3.8 4 7l2 1v2h2l.8 1.6 1 2.2 1.1 2.2c1.2 2.2 1.2 2.2 3.1 5v3h2l1 7h2c3 5.6 3 5.6 3 9h2l1.5 4.8.8 2.7c.7 2.5.7 2.5.7 5.5h2l.3 2.5c1 7.5 2.3 14.7 5.7 21.5v8h2l.4 3.6.5 4.8.3 2.4c.4 4.2.4 4.2 1.8 8.2v8l-2.6.2-3.3.2-3.4.3c-2.6 0-2.6 0-3.7 1.3q-14.6 3.3-29.5 4.4l-2.5.2q-1 0-2.2.2c-1.9.1-1.9.1-3.8 1.2h-6v2h-12v-2h-8v-2l-20-1v-2h-1.8a76 76 0 0 1-27.2-4l1-19h2l-.1-3.4c0-5.8 1.3-11.2 3.1-16.6h2l.1-3.1c.4-8 1-15.3 3.9-22.9h2l.3-3.6c.5-4.3 2.2-6.9 4.7-10.4.8-2.7.8-2.7 1-5h2l.3-2.1c.9-3.6 2.6-6 4.7-8.9l1-3h2l1-5h2v-2l4-4 1-2h3v-3h3v-2c10.6-6.4 20.2-6.1 32-3"/><path fill="#d92d2f" d="M296.6 155.8h4q10.5-.1 20.8 1.7a82 82 0 0 0 12.4 1.4l2.2.1v2l2.4.1c8.4.5 16.3 2 24.6 3.9l.1 1.9.3 2.4.2 2.4c.3 2.6.3 2.6 2.4 5.3v3h2l1 5h2v3h2a10 10 0 0 1 3 3c.2 2.7.2 2.7 0 5h-2l-1 5h-2v3h-3v3h-2l-.3 2.8c-.7 3.2-1.4 4.8-3.7 7.2h-2v3h-2l-.2 2c-1.1 4.2-3.4 7.6-5.7 11.3l-1.4 2.2c-3.4 5.4-3.4 5.4-5.7 6.5l-2 5h-2v3h-80v-3l-3-1v-2h-2l-.4-2.4-.6-2.6-2-1v-2l-3-1c-1.6-2.6-2-3.9-2-7h-3v-3h-2l-1-5h-2v-3h-2l-1-5h-2c-2.6-2.1-3.2-3.8-4-7l-2-1v-3h-2c-2.6-3.4-3.4-5.7-3-10 1.2-2.5 1.2-2.5 2.9-4.8l1.6-2.4 1.5-1.8h2v-4h2l.4-2.1.5-2.8.6-2.7c.5-2.4.5-2.4 1.5-4.4h3v-2q8-2.2 16.3-3.6l2-.4c3.4-.7 6.3-1 9.7-1v-2q14.2-1.3 28.6-1.2M88 74v2h3l.1 2c.4 4 .8 7.8 2 11.8 1.6 5.9 1 12.1.9 18.2h2c2 5.6 3.2 10.7 3.4 16.6q.5 7.8 2.5 15.3 2.6 9.8 3.5 19.8 1.2 8.7 3.3 17.3c1 5.1 1.5 9.8 1.3 15h2l.3 2.3c1 7 2.8 13.1 5.7 19.7 1.5 3.9 2.2 6.8 2 11h2l1 8h2v5l-2.7.4-3.5.5-3.5.5c-3 .5-5.5 1.3-8.3 2.6v2h-3v2l-5 4-1 2-4 1-1 2h-2l-1 3h-2v2h-2l-1 3-4 1-1 2h-2v2h-3l-1 3h-2v2l-5 1v2h-4q.2-42.5 3.2-85a1457 1457 0 0 0 3.6-85.4v-2.9q.4-4.4 1.2-8.7a99 99 0 0 0 .6-10.4c.3-5.4.3-5.4 1.4-7.6 4.9-2.5 9.7-4.6 15-2"/><path fill="#d92d30" d="M513 73h4.3l2.4-.1c2.3.1 2.3.1 5.3 1.1v2h3v1.8l1.5 35v3q.4 8.1 1.5 16.2a194 194 0 0 1 .6 15.3l.1 3.1.1 2.8c.2 2.8.2 2.8.7 5.6a69 69 0 0 1 .9 12l.1 3.5.1 3.5.5 15.2.4 11 .1 3.5.1 3.2.1 2.8q.3 3.3 1.2 6.5.3 4.3.3 8.6v2.5a2302 2302 0 0 1 .7 44.9h-4v-2l-5-1v-2l-3-1v-2h-3v-2l-1.8-.3a9 9 0 0 1-5.2-3.7v-2h-3v-2l-3-1v-2l-3-1v-2h-2l-1-2-1.9-.4c-2.5-.7-3.5-1.6-5.1-3.6v-2h-3v-2c-6-2-11.7-3.4-18-4v-5h2l.4-3.2c.5-3.2 1-5.1 2.6-7.8h2l1-10h2l-.2-3.3A48 48 0 0 1 488 193l1-1 1-6.5q.8-7 2.4-14 2-9.1 3.6-18.5h2v-1.7l-.1-2.3-.1-2.2q.5-4.4 1.7-8.6 1.3-7.2 1.6-14.6.4-6.4 2.4-12.4c2-6 2.2-11.8 2.6-18q0-3.3.4-6.6l.1-2.9c.4-2.8 1.2-5.1 2.4-7.7h3z"/><path fill="#080808" d="M202.5 323.9h2c3.1 0 5.5.1 8.5 1.1v2h3v2l3 1v4l3 1v2h2v5h2v9l10.9-1 3.1-.2 3-.3 2.8-.2c2.2-.2 2.2-.2 4.2-1.3q6.6-.4 13.3-.6h2q20.4-.6 40.7-.5h3c31.4-.1 31.4-.1 38 2.1l6 .5 3.5.3 3.7.3 3.7.2 9.1.7.4-3c.6-3 .6-3 1.6-4l1-7h2l1-5h2v-3h3v-2c4-3 7-3.4 12-3.4l3.6-.1c4 .6 5.5 1.9 8.4 4.5l4.3 2 3.7 2c.8 2.6.8 2.6 1 5l2 .9 2 1.1c.8 3.6.8 3.6 1 7h2c3.2 11 4.7 22.7 2 34h-2l-.8 2.3a12 12 0 0 1-4.2 5.7h-3v3h-3v2l-9.7.3A26 26 0 0 1 390 390v-2h-3c-1.7-1.4-1.7-1.4-3-3v-2h-2v-3l-3-1c-3-3.8-3.4-7-3.7-11.8l-.2-3.5-.1-2.7h-2v-5h-13v-2h-2.3l-10.3-.4-3.6-.2h-3.5l-3.2-.2c-3.1-.2-3.1-.2-6-.7q-4.4-.7-8.8-.6h-47.5q-4.4.3-8.8 1.1l-4.2.2-2.3.1-4.7.2q-5.6.1-11 1.5-5.2 1.4-10.8 1.6l-3.4.3-2.6.1-.6 2.4A54 54 0 0 1 221 375h-2v3h-2l-2 7h-2v2l-5 1v2l-5 1v2h-19v-2l-3-1v-2h-2c-2.3-1.8-3-2.8-3.7-5.7q0-1.2-.3-2.3l-3-1c-1.2-3-1.1-6-1.1-9.2v-9.2l.1-7.6h2l1-8h2v-5h2l1-3h2l1-3h2v-2h2l1-3c2.6-1.2 2.6-1.2 5-2v-2c3.6-1.2 6.8-1.1 10.5-1.1"/><path fill="#040404" d="m396 323.6 3.6-.1c4 .6 5.5 1.9 8.4 4.5l4.3 2 3.7 2c.8 2.6.8 2.6 1 5l2 .9 2 1.1c.8 3.6.8 3.6 1 7h2c3.2 11 4.7 22.7 2 34h-2l-.8 2.3a12 12 0 0 1-4.2 5.7h-3v3h-3v2l-9.7.3A26 26 0 0 1 390 390v-2h-3c-1.7-1.4-1.7-1.4-3-3v-2h-2v-3l-3-1c-3-3.8-3.4-7-3.7-11.8l-.2-3.5-.1-2.7h-2v-5h-13v-3l-4-1c3.1-1.6 6.3-.6 9.6 0l2.2.2 5.2.8-.1-2.8c.1-3.2.1-3.2 2.1-6.2l1-7h2l1-5h2v-3h3v-2c4-3 7-3.4 12-3.4"/><path fill="#fbcacb" d="M302.6 390.8h2.7l6.7.2v2l3.1.2c4.9 1 6.4 2.4 9.9 5.8l1.9 1.7c1.1 1.3 1.1 1.3 1.1 3.3h2c9 10.1 9 10.1 9 16h2c2 3 3 4.4 3 8h2l1 8h2c2.8 7.4 2.8 7.4 4 11.1 1 3 1 3 2.5 5.7 3 6.4 3.7 13.3 4.5 20.2h2l.4 2.6L365 492h2c1.1 4.4 1 8.5 1 13h2l1 8h13c-2 2-2 2-4.7 2.3h-6.5c-2.8-.3-2.8-.3-4.8-2.3l-3 3-1.5-8.4-.4-2.4c-1-5.5-1.2-10.6-1.1-16.2h-2l-.3-1.9q-1-6.4-3.3-12.4c-2-5.7-2.1-11.7-2.4-17.7h-2c-3.4-8.4-3.4-8.4-3-13h-2c-3-5.6-3-5.6-3-9h-2l-1-7h-2l-.8-1.6-1-2.2-1.1-2.2c-1.2-2.2-1.2-2.2-3.1-5v-3h-2v-2l-3-1v-4l-3-1v-2h-2c-1.6-1.4-1.6-1.4-3-3v-2l-1.6-.4-5.8-1.6c-8-2.2-16.5-4-24.2 0l-3.4 2h-2v2h-3v3h-3l-.8 2.4-1.2 2.6-3 1v2h-2l-1 5h-2l-.2 2.1c-1 3.6-2.7 6-4.8 8.9l-1 3h-2l-.3 3.3c-.7 3.8-1.4 4.7-3.7 7.7l-2 8h-2l-.4 2.7Q249 464.4 247 476h-2q-1.7 10-3 20h-2v6.7l.1 3.7q0 4.4-1.1 8.6l2 1h-4v-18l-2 2c-.4-6.8 1-12.5 3-19h2v-3.7q-.1-4.7 1-9.3h2l.8-3.9q1.8-7.4 4.3-14.7l.9-2.4 2-6h2l-.1-2.3c.1-2.7.1-2.7 2.1-5.7l.9-3.3c1.1-3.9 2.8-6.4 5.1-9.7l1-3h2v-3h2l.8-2.3c1.2-2.6 2.2-3.7 4.2-5.7l.3-2c1.1-3.3 3.7-4.3 6.7-6h2v-2h3v-2a45 45 0 0 1 19.6-3.2"/><path fill="#f3a5a7" d="M235 166h2l-3 12h-2v4l-4 4c-2.5 3.2-3 4.5-2.7 8.6.6 3.4.6 3.4 1.7 6.4h2v3l3 1v4l3 1v2h2l1 5h2v3h2l1 5h2v3h3l1.4 3.4c1.2 3.6 1.2 3.6 3.6 4.6v2l3 1v5h2c1.6 1.3 1.6 1.3 3 3v3h80v-3l2-1 2-5h2l.7-2q2.3-5.1 5.4-9.6c2.8-4.5 2.8-4.5 4.9-9.4h2v-3h2a57 57 0 0 0 4-10h2v-3h3v-3h2l1-5h2v-5l-3-1v-2h-2v-3h-2l-1-5h-2a21 21 0 0 1-3-14l3 1 2 7 3 6v2h2l1 3 2 1 1 4 2 1c-.4 5.4-1.4 8-5 12l-1 3h-2l-.2 2.1c-1 3.6-2.7 6-4.8 8.9l-1 3h-2l-1 5h-2l-.7 2.1c-1.5 3.3-3.2 6-5.3 8.9h-2v3h-2l-1 5h-2q-1.7 2.8-2.4 6.1c-.6 1.9-.6 1.9-3.6 3.9-2 .3-2 .3-4.4.4l-2.7.1-3 .1-3.3.1q-16 .5-32.1.4H293l-17-.1h-2.5l-7-.2h-2.2c-2-.1-2-.1-5.3-.8-2-2.4-3-3.9-3-7l-3-1v-4h-2v-3l-3-1c-3-4.3-3-4.3-3-7h-2l-1-5h-2v-3l-3-1v-2h-2v-3h-2l-1-5h-2l-1-5h-2c-2-3-3-4.4-3-8h-2c-1.1-7.6-1.1-7.6 0-11h2l3-8h2l.3-2.3c.8-3 1.6-3.6 3.7-5.7 1.2-3.1 1.2-3.1 2-6"/><path fill="#e5e5e5" d="M544 68h2c1.3 6 1 12 1 18h2v30h2q1.2 32 1 64h2v2.5l1.7 58.1.1 3.6c0 2.8 0 2.8 1.2 4.8l.1 4.8v8.8l-.1 7.4 5 1v2h-6c-1-1-1-1-1.1-3.2V257l.1-8.1h-3l-1.7-59.8-.1-3.6c0-2.5 0-2.5-1.2-3.6l-.3-6.8v-2l-.4-15.3-.1-3.8c0-3 0-3-1.2-5.1l-.3-5.8v-3.7l-1.2-39v-2Q545 83.3 544 68"/><path fill="#151515" d="M306 346.9h3c31.4-.1 31.4-.1 38 2.1l6 .5 3.5.3 3.7.3 3.7.2 9.1.7v2l-16-1 3 2-12.6-.4-3.6-.2h-3.5l-3.2-.2c-3.1-.2-3.1-.2-6-.7q-4.4-.7-8.8-.6h-47.5q-4.4.3-8.8 1.1l-4.2.2-2.3.1-4.7.2q-5.6.1-11 1.5c-3.3.9-6 1.2-9.3 1.1h-2.6l-1.9-.1 2-1v-2h-6v-2l2-.2 8.9-.7 3.1-.3 3-.3 2.8-.2c2.2-.2 2.2-.2 4.2-1.3q6.6-.4 13.3-.6h2q20.4-.6 40.7-.5"/><path fill="#e7e7e7" d="m59 60 2 1c-2.9 6.9-2.9 6.9-4 8a122 122 0 0 0-1.6 20.6l-1.7 46.5v2.2l-.3 10v3.4l-.1 3C53 157 53 157 51 160c-.4 3-.4 3-.4 6.6v4l-.4 12v3.7C50 189 50 189 49 190l-.3 7.8v2.3L48 225h-2v32h-2v13l-4 1v-2h3v-2.5a751 751 0 0 1 1-43.5h2v-35h2v-2.4q-.2-30.8 1-61.6h2V94h2V83.1q-.1-7.5 1-15.1h2l.4-2.9C57 62 57 62 59 60"/><path fill="#feedee" d="m122 228 3 2v2h2c.1 6.8.1 6.8-1 9h7v1h-15v2h-3l-1 3c-4.3 3-4.3 3-7 3v2h-3l-1 3h-2v2l-5 1v2h-3v3h-3v2l-4 1v2h-3l-1 3h-2v2c-1.4 1.6-1.4 1.6-3 3h-2l-1 3h-2v2l-3.8 1.5-2.2.8c-2 .7-2 .7-5 .7v-2l3-1 1-2-4-1q-.3-15.6 2-31h1v17.2l.1 3.7v3.4C64 274 64 274 63 276h4v-2l5-1v-2c1.3-1.6 1.3-1.6 3-3h3v-2h2l1-3 4-1 1-2h2v-2c1.4-1.6 1.4-1.6 3-3h2l1-3h4l1-3h2l1-3h2v-2h3v-2a27 27 0 0 1 18-4v-5h-2z"/><path fill="#fddad9" d="M110 263h4l1 7-3 1-1 4-4 6-1 3h-2v3h-2l-1 5h-2l-1 8h-2l-.4 3.1q-.8 5.1-2.6 9.9h-2l-1 11h-2l.1 3.6c0 3.9-.9 6.7-2.1 10.4l-.7 7.8C85 348 85 348 83 350l-1-12-4 10c-1-4.3-.7-6 .4-10.2l1-3.3.6-2.5h2v-2c.4-6 1.4-10.5 4-15.8q2-4.4 2.5-9.3c.5-1.9.5-1.9 2.5-4.9h2l1-8h2v-3h2l.3-2.6c.8-3.8 2-6.8 3.7-10.4h2v-3h2l1-5h2z"/><path fill="#fddedd" d="M487 265h6l1.7 3.4q3 6 6.3 11.7c1 1.9 1 1.9 1 3.9h2l.8 2.6 3.8 9.7 1.3 3.2c.9 2.4.9 2.4 2.1 3.5v5h2l.6 2q1.3 5.6 4 11c3.4 7 3.8 15.3 4.4 23h-2l-1-4v16h-1a79 79 0 0 1-2-22h-2c-1.9-5.7-3.3-11-3.7-17-.3-2.3-1.3-4-2.3-6v-3h-2l-1-8h-2l-.7-2-4.5-10c-.8-2-.8-2-.8-4h-2c-3-5.7-3-5.7-3-8l-3-1v-2h-2z"/><path fill="#fbd0d0" d="M536 232c1.6 2.9 2.3 5 2.3 8.3v2.6l.1 2.7v2.8l.6 29.6h-5l1 3a11 11 0 0 1-8-4c-2.1-.7-2.1-.7-4-1v-3h-3l-1-3-4-2-3-3-2.6-1.4c-2.4-1.6-2.4-1.6-2.9-3.7l-.5-1.9c-2.3-1.2-2.3-1.2-5-2a21 21 0 0 1-10-7l-1-2 5 1-1-4h2v2l3 1v2l5 1v2h2l4 5 2 1v2h3v2l3 1v2l4 1v2h3c1.7 1.4 1.7 1.4 3 3v2l5 1v2h4l-.2-2.5c-1-13.8-.9-27.7-.8-41.5"/><path fill="#fab9bc" d="m363 166 3 1 2 7 3 6v2h2l1 3 2 1 1 4 2 1c-.4 5.4-1.4 8-5 12l-1 3h-2l-.2 2.1c-1 3.6-2.7 6-4.8 8.9l-1 3h-2l-1 5h-2l-.7 2.1c-1.5 3.3-3.2 6-5.3 8.9h-2v3h-2l-1 5h-2a32 32 0 0 0-3 8h-16v-1h13v-4l2-1 2-5h2l.7-2q2.3-5.1 5.4-9.6c2.8-4.5 2.8-4.5 4.9-9.4h2v-3h2a57 57 0 0 0 4-10h2v-3h3v-3h2l1-5h2v-5l-3-1v-2h-2v-3h-2l-1-5h-2a21 21 0 0 1-3-14"/><path fill="#f9a6a8" d="M235 166h2l-3 12h-2v4l-4 4c-2.5 3.2-3 4.5-2.7 8.6.6 3.4.6 3.4 1.7 6.4h2v3l3 1v4l3 1v2h2l1 5h2v3h2l1 5h2v3h3l1.4 3.4c1.2 3.6 1.2 3.6 3.6 4.6l1 5-3 1v-3l-3-1c-3-4.3-3-4.3-3-7h-2l-1-5h-2v-3l-3-1v-2h-2v-3h-2l-1-5h-2l-1-5h-2c-2-3-3-4.4-3-8h-2c-1.1-7.6-1.1-7.6 0-11h2l3-8h2l.3-2.3c.8-3 1.6-3.6 3.7-5.7 1.2-3.1 1.2-3.1 2-6"/><path fill="#989898" d="M35 276c.4 6.4.4 6.4-1.4 9.2L32 287c-2.2 3.5-2.5 7-3 11h-2v2.3q0 9.4-.3 19v2l-.7 18.9c-.3 2.7-.3 2.7 1 3.8l.1 4v7.7L27 362h2v15h-2v-5h-2a114 114 0 0 1-1-18v-9h-2v-16h2v-3.4q-.2-14.3 1-28.6h2l-.1-2.7A20 20 0 0 1 29 286l1-5h2v-4c2-1 2-1 3-1"/><path fill="#969696" d="M547 86h2v30h2q1.2 32 1 64h2v35h-2v-3l-.7-22.7v-2.2c.1-3.3.1-3.3-1.3-6.1a122 122 0 0 1-.4-11.7l-.2-6.4-.5-15.7-.7-26.7c0-2.4 0-2.4-1.2-3.5l-.1-6.9v-2z"/><path fill="#6f6f6f" d="M290.6 135.9h16.9c2.5.1 2.5.1 4.5 1.1a248 248 0 0 0 16 1v2h2.6c6.2 0 12.2 0 18.4 1v2c-31.8.6-31.8.6-39-3v-2h-25v2h-1.7l-7.7.4-2.8.2h-2.5l-2.4.2c-2 0-2 0-2.9 1.2l-8.6.6H254l-6 .4v2h-8v-2h6v-2l18-1v-2h1.7l7.7-.4 2.7-.2h2.5l2.4-.2c3.4-.3 6-1.3 9.6-1.3"/><path fill="#d56062" d="M361.4 318.9h2.7l1.9.1c-2.6 2.6-4.4 2.5-8 3-4.1.6-4.1.6-8 2h-8v2a295 295 0 0 1-31.6 1.1h-33.5c-23.8 0-23.8 0-26.9-3.1l38.6.2c24.2.2 49.3-6 72.8-5.3"/><path fill="#a7a7a7" d="M226 532c11.8-.5 25 0 36 4.3q4.4 1.3 9.3 1.5c1.7.2 1.7.2 2.7 1.2a133 133 0 0 0 22.7 1H328v2q-12.5 1.4-25.1 1.1h-7q-12 .2-23.9-1.1v-2l-19-1v-2h-8v-2l-19-1z"/><path fill="#f9c9c9" d="M244 464c1 2 1 2 1 6l2-5h1l-1 11h-2q-1.7 10-3 20h-2v6.7l.1 3.7q0 4.4-1.1 8.6l2 1h-4v-18l-2 2c-.4-6.8 1-12.5 3-19h2v-3.7q-.1-4.7 1-9.3h2z"/><path fill="#f8c7c9" d="M63 247h1v17.2l.1 3.7v3.4C64 274 64 274 63 276h4v-2l5-1v-2c1.3-1.6 1.3-1.6 3-3h3v-2h2l1-3h2l-1 4h-2v2h2v2h-2v2c-1.4 1.6-1.4 1.6-3 3h-2l-1 3h-2v2l-3.8 1.5-2.2.8c-2 .7-2 .7-5 .7v-2l3-1 1-2-4-1q-.3-15.6 2-31"/><path fill="#b4b4b4" d="M574 297h2v11h2c1 18.8 1.1 37.2 0 56h-2l.1 3.7c0 3.5-.5 6.1-2.1 9.3h-1l.2-2.5a680 680 0 0 0 2-51.8c.7-7.4.7-7.4-1.2-13.7v-12"/><path fill="#f5b8ba" d="m528 79 2 1q.5 3.8.6 7.7.3 7.2 1.4 14.3l.6 9v2.8c.7 16 .5 32.1.4 48.2h-1c-1.2-6-1.3-11.9-1.5-17.9q-.1-9-1.3-17.8-.7-8.4-.8-16.9v-3.8q-.5-13.3-.4-26.6"/><path fill="#fbadaf" d="M174 433h4c.5 4.9-1.2 8.6-3 13-1.2 3.7-1.1 7.1-1.1 11l.1 27h2l1 8h-3l-1-8h-2q-1.3-9.3-1.2-18.7v-3c.1-10 1.5-19.5 4.2-29.3"/><path fill="#f6a5a6" d="M421 436h3c2.5 5.7 3.3 9.8 3 16h2l.3 15.8A64 64 0 0 1 424 494h-3l1-7h2v-3c0-3 0-3 1-4q.3-3 .3-6.2l.1-3.8.6-18h-2l-.4-2.2-.5-3-.6-3z"/><path fill="#f8c3c4" d="M536 232c1.6 2.9 2.3 5 2.3 8.3v2.6l.1 2.7v2.8l.6 29.6h-5l1 3a11 11 0 0 1-8-4c-2.1-.7-2.1-.7-4-1v-3h-3l2-5c3 0 3 0 4.7 1.4 1.3 1.6 1.3 1.6 1.3 3.6l5 1v2h4l-.2-2.5c-1-13.8-.9-27.7-.8-41.5"/><path fill="#7c7c7c" d="M46 188h2v37h-2v32h-2v13l-4 1v-2h3v-2.5a751 751 0 0 1 1-43.5h2z"/><path fill="#da5e60" d="M73 76c1.2 3.8 1 7.4 1 11.3v2.3l-.2 7.2-.1 2.5c-.5 19.3-2 38.5-3.7 57.7h-1c-.2-31.7-.2-31.7.4-46.7l.2-3q.2-6.6 1.4-13.3l.6-10.4c.3-5.4.3-5.4 1.4-7.6"/><path fill="#fcdcdd" d="M104 244h3q-2 4.3-5 8l2 2-3 1v2l-5 1v2h-3v3h-3v2l-4 1v2h-3l-1 2-2-1v-2h2l.3-1.8A9 9 0 0 1 86 260h2v-2c1.4-1.6 1.4-1.6 3-3h2l1-3h4l1-3h2l1-3h2z"/><path fill="#f8abab" d="m363 166 3 1 2 7 3 6v2h2l1 3 2 1 1 4 2 1c-.4 5.4-1.4 8-5 12l-1 3h-2l-.4 2.4-.6 2.6-2 1v-3h-2v-2h2v-3h3v-3h2l1-5h2v-5l-3-1v-2h-2v-3h-2l-1-5h-2a21 21 0 0 1-3-14"/><path fill="#fddcdc" d="M515 316c6.8 7.5 7.4 18.2 8 28h-2l-1-4v16h-1a79 79 0 0 1-2-22h-2l-1.5-4.7-.8-2.7c-.7-2.6-.7-2.6-.7-6.6h2v4h2z"/><path fill="#fdc8c9" d="M302.6 390.8h2.7l6.7.2v4c-3.4 1.1-4.6.7-8 0a28 28 0 0 0-19 4h-2v2h-3v3h-3l-1 3-1-2 1-2-4 1v-2c5.4-4 5.4-4 8-4v-2h3v-2a45 45 0 0 1 19.6-3.2"/><path fill="#f7c2c3" d="M89 316h2l-1 8h-2l.1 3.6c0 3.9-.9 6.7-2.1 10.4l-.7 7.8C85 348 85 348 83 350l-1-12-4 10c-1-4.3-.7-6 .4-10.2l1-3.3.6-2.5h2l.1-2.4.3-3 .2-3.1.4-2.5 2-1v3h2q1.2-3.4 2-7"/><path fill="#db6b6d" d="M46 295h2l-1 15h-1c-3.6 31.7-3.6 31.7 4 62v3h-2v-3h-2a70 70 0 0 1-3.4-26.6v-18c0-22.2 0-22.2 3.4-32.4"/><path fill="#363636" d="M255.1 348h4.9v2l-10 1h22v1c-5.7 1.1-11.4 1.3-17.2 1.5q-5.6.1-11 1.5c-3.3.9-6 1.2-9.3 1.1h-2.6l-1.9-.1 2-1v-2h-6v-2l2-.2 8.9-.7 3.1-.3 3-.3 2.8-.2c3.4-.5 5.7-1.4 9.3-1.4"/><path fill="#fabebe" d="M344 428h2l1 8h2c2.8 7.4 2.8 7.4 4 11.1 1 3 1 3 2.6 5.5 2 5 2.1 10 2.4 15.4h-2a21 21 0 0 1-2-11h-2c-3.4-8.4-3.4-8.4-3-13h-2c-3-5.6-3-5.6-3-9h-2l-1-5 3 1z"/><path fill="#010101" d="M260 348h55v1h-29v2q-19 1.2-38 1c2-2 2-2 4.4-2.2h2.7l2.8.1 2.1.1z"/><path fill="#d0d0d0" d="M349 143c7-.2 12.4.8 19 3v2l13 1v2l2.1.4q4.5 1 8.9 2.6v2c-17.3-1.4-17.3-1.4-25-5v-2l-4-1v-2h-3.6q-5.4 0-10.4-1z"/><path fill="#de6567" d="M353 517c-5.3 5.3-23.3 4.7-30.5 5.4l-2.5.2q-1 0-2.2.2c-1.9.1-1.9.1-3.8 1.2h-6v2h-12v-2h-8v-2l3.8.1c9.7.2 18.3-.2 27.8-2.4a88 88 0 0 1 13.2-1.4q6.8-.7 13.4-2c2.7-.3 4.3-.1 6.8.7"/><path fill="#c3c3c3" d="M366.6 531.9h2.7l6.7.1v2q-9.5 1.1-19 1v2h-8v2q-10.5 1.1-21 1v-2q9.5-1.1 19-1v-3a70 70 0 0 1 19.6-2.1"/><path fill="#bebebe" d="M517 457c0 2 0 2-1.4 3.6-1.6 1.4-1.6 1.4-3.6 1.4l-1 5-4 1-1 5h-2l-1 3h-2l-.2 1.6c-1.2 3.6-3.2 5.7-5.8 8.4h-2l-.2 1.9c-.8 2.1-.8 2.1-2.9 3.4l-1.9.7 1-6h2v-2h2l1-3h2l.8-2.3c1.2-2.6 2-4 4.2-5.7h2l.8-2.7c1.1-3 2.2-4.8 4.2-7.3l1-3h3v-2c3-1 3-1 5-1"/><path fill="#f09b9c" d="m253 238 3 1v5h2a9 9 0 0 1 3 3l-1 5 56 2v1h-42.5l-9.3-.2c-2-.1-2-.1-5.2-.8-2-2.4-3-3.9-3-7l-3-1z"/><path fill="#bdbdbd" d="M25 330c1.3 2.6 1 4.6 1 7.6v5.4l1 1 .1 4v7.7L27 362h2v15h-2v-5h-2q-1.2-8-1.1-16v-20c0-4.9 0-4.9 1.1-6"/><path fill="#dd6568" d="M68 164h1q0 15.9-.3 31.8v2.1Q67.8 219 65 240h-1c-.4-15 .8-30 1.9-45l.7-10.5z"/><path fill="#aeaeae" d="M127 169h1v6h2l1 16h2v5h2l1 8h3v-2c1.4-1.6 1.4-1.6 3-3h2l-1 5h-3v2l-7 1v-9h-2c-3.7-5.7-3.5-11.2-3.7-17.9V177q-.2-4-.3-7.9"/><path fill="#fbd4d3" d="M520 368h2a769 769 0 0 1 2.3 29.7c1.8 22.3 1.8 22.3-4.8 30.1-3.7 3.8-7.1 7.1-12.5 8.2v-2q2.5-2.3 5.4-4.5c1.9-1.5 1.9-1.5 2.6-4.5h2l1-3h2v-2h2c.3-17.4-.7-34.6-2-52"/><path fill="#facccd" d="M91 78c4.3 4.3 4.2 12.5 5 18.4q.7 6.5 2.5 12.8c1.8 6 2.3 12.2 2.9 18.4.2 4.3.2 4.3 1.6 8.4v9h-1c-2-8-3.3-15.5-3.7-23.7A85 85 0 0 0 96 108h-2l-.2-1.8-1-11-.3-2.6-.2-2.5c-.2-2.2-.2-2.2-1.3-4.1z"/><path fill="#fcd4d6" d="M260 250c10 0 19.8-.1 29.7.7q16.2 1 32.3 1.3v1l-45 .1h-10.3a26 26 0 0 1-6.7-1.1z"/><path fill="#aeaeae" d="M104 60h2c5.7 7.2 6.5 17.2 6 26h2q1.1 11 1 22h-1l-.2-2-.2-2.4-.3-2.5c0-2 0-2-1.3-3.1V87h-2V76h-3v-8l-3-1z"/><path fill="#fee5e5" d="m474 236 1 2 3.4-.2q7.8 0 14.6 4.2a13 13 0 0 1 2 6l-4.2-.9-2.4-.5q-3.4-.8-6.4-2.6v-2h-13v-1h5z"/><path fill="#feecec" d="M364 495c3.4 3 3.6 5.5 4 10h2l1 8h13c-2 2-2 2-4.7 2.3h-6.5c-2.8-.3-2.8-.3-4.8-2.3l-3 3q-1.1-10.5-1-21"/><path fill="#282828" d="m340 348 7.3.7 3 .2L362 350l6.2.6 4.8.4v2l-16-1 3 2-12.6-.4-3.6-.2h-3.5l-3.2-.2q-4.6-.3-9.1-1.2v-1l13-1z"/><path fill="#969696" d="M82.5 54.6h3.6A39 39 0 0 1 104 58v2l-4.4-.4-2.5-.3C95 59 95 59 94 58q-5.6-.3-11.2-.2h-9.1c-3 .2-5 1-7.7 2.2h-5v-2a46 46 0 0 1 21.5-3.4"/><path fill="#d14143" d="M341 244h3l-1 3h-2v3h-80v-1l79-1z"/><path fill="#8b8b8b" d="M51 94h2l.2 24v4c-.2 3-.2 3-2.2 5-.4 3.2-.4 3.2-.4 7l-.6 24h-2l1-34h2z"/><path fill="#9a9a9a" d="M483 111h2v10h-2v2.4l.1 3.2.1 3.2c-.2 3.4-1.1 6-2.2 9.2q-.7 4.5-1.1 8.9l-.3 2.3-.6 5.8h-2l1-19h2l1-18h2z"/><path fill="#9c9c9c" d="M517 54.6h3.4A47 47 0 0 1 539 58v2c-6.7.1-6.7.1-9-1v-2h-24v2l-10 1v-2c7-3.3 13.2-3.5 21-3.4"/><path fill="#fccccd" d="M237 217h3v3h2l1 5h2v3h3l1.4 3.4c1.2 3.6 1.2 3.6 3.6 4.6l1 5-3 1v-3l-3-1c-3-4.3-3-4.3-3-7h-2l-1-5h-2v-3l-3-1z"/><path fill="#adadad" d="M50 127h1q.3 31-1 62l-2 1v-32h2z"/><path fill="#a7a7a7" d="M554 215h1l.7 24.8v2c.1 3.8.1 3.8 1.3 7.2l.1 4.8v8.8l-.1 7.4 5 1v2h-6c-2.2-2.2-1.4-7.4-1.6-10.4v-3q-.7-22.3-.4-44.6"/><path fill="#d14a4d" d="M175 444c1.2 3.6 1 6.6.6 10.4-1 11.5-1.7 21.6 3 32.3 1.4 3.3 1.4 3.3 1.4 7.3h-6v-2h3l-1-2v-6h-2c-1.4-6-1.2-11.9-1.2-18v-13.8a21 21 0 0 1 2.2-8.2"/><path fill="#fbbabc" d="m223 195 4 4v2h2v3l3 1v4l3 1v2h2c.8 3.3 1.1 4.7 0 8h-2v-3h-2l-1-5h-2l-1-5h-2a21 21 0 0 1-4-12"/><path fill="#d6686a" d="M289.6 379.8h21c5.2 0 5.2 0 7.4 2.2h-24v1l-25 2v-2l2.3-.4 3-.5 3.1-.6c8.2-1.7 8.2-1.7 12.2-1.7"/><path fill="#9c9c9c" d="M115 108h2v8h2l1 19h2v10h-2v-8h-2q-1.2-9.5-1-19h-2z"/><path fill="#adadad" d="m184 524 10 1v2l3 .2 3.9.2 3.8.3c3.3.3 3.3.3 5.3 1.3v2h16v1h-10.9q-7.5.1-15.1-1v-2h-8v-2l-8-1z"/><path fill="#b9b9b9" d="M550 407h2c-.8 2-.8 2-2 4l-3 1-1 3-4 1-1 9h-2l-1 8h-2c-.4-6.7 0-14.3 4.4-19.8 1.6-1.2 1.6-1.2 4.6-1.2v-2l2-.4 2-.6z"/><path fill="#fee9e8" d="m508 301 4 2v5h2l1 5.8.6 3.2c.4 3 .4 3 .4 7h-2v-4h-2a61 61 0 0 1-4-19"/><path fill="#dd6b6d" d="M513 73h4.3l2.4-.1c2.3.1 2.3.1 5.3 1.1v2h3v6l-1-4-13-3c-2 3.8-2 3.8-3 7h-2v5l-2 1c-.2-4.5 0-7.9 2-12h3z"/><path fill="#fdcdcc" d="M351 233h2l-1 6h-2l-1 5h-2a32 32 0 0 0-3 8h-16v-1h13v-4l2-1 2-5h2l.9-2.3c1.1-2.7 1.1-2.7 3.1-5.7"/><path fill="#df6769" d="m165 209-2 4h-2v2h-2l-.2 1.9-.8 2.1-5 2-.4 1.9c-.8 2.9-2.1 3.4-4.7 4.8q-1 .8-2.2 1.3l-1.7 1 1-4 4-1 1-5h2v-2l5-1 1-5h2v-2c2-1 2-1 5-1"/><path fill="#e0e0e0" d="M312 140h18q9.5-.3 19 1v2a208 208 0 0 1-37-2z"/><path fill="#d15456" d="M110 332h2l-1.5 10.6q-1 7-1 14.3l-.2 3-.3 7.1c-2-1-2-1-3-4v-11h2v-2.6a45 45 0 0 1 2-17.4"/><path fill="#b8b8b8" d="M475 156h2c.4 16.9.4 16.9-2 24h-3l1-16h2z"/><path fill="#fededd" d="m276 403-2 7h-2v2h-2l-.2 2.4-.8 2.6c-2.6 1.3-2.6 1.3-5 2v-5h2l.8-2.2c1.8-4.1 4.2-8.8 9.2-8.8"/><path fill="#b8b8b8" d="m59 60 2 1c-2.9 6.9-2.9 6.9-4 8a131 131 0 0 0-1.6 16v2.3L55 93l-2 1V83.1q-.1-7.5 1-15.1h2l.4-2.9C57 62 57 62 59 60"/><path fill="#fac7c8" d="M110 263h4l1 7-3 1-.4 1.8c-.8 3-2.4 4.2-4.6 6.2l1-6h-2l1-5h2z"/><path fill="#ed9091" d="M76 350h1l.1 4.5.1 2.5q-.5 4.4-1.7 8.6-1.3 7.5-1.6 14.9L73 392h-1c-.1-14.5 0-28 4-42"/><path fill="#969696" d="M574 297h2v11h2v21h-2l-.4-9.4-.2-2.8v-2.5l-.2-2.4c0-2 0-2-1.2-2.9v-12"/><path fill="#757575" d="M205.6 156h2.4v2h-5v2l-3.4.9-3.6 1.1-1 2h-3v2c-2.7 1.4-5 1-8 1v-2l5-1v-2h3v-2l2.2-.6 2.7-.8 2.8-.8c5.5-1.9 5.5-1.9 5.9-1.9"/><path fill="#de6365" d="M99 132c5.2 9.6 5.8 21.3 7 32l1 8h-2q-2.4-10-3.4-20.4c-.5-3.6-.5-3.6-1.7-7.3a25 25 0 0 1-1-8.2v-2.4z"/><path fill="#a5a5a5" d="M493 63h3a21 21 0 0 1-2 6.9c-1.4 3-1.6 5.9-2 9.1h-3v10h-1q-.3-9 1-18h2l-.1-2.9c.1-3.1.1-3.1 2.1-5.1"/><path fill="#9e9e9e" d="M374 338h2c.4 5.2-.8 8.4-3 13q-9.5.2-19-.4l-3.8-.2c-3.2-.4-3.2-.4-6.2-2.4l27 1 1-6h2z"/><path fill="#fbb8b8" d="M427 460h1c.5 23.6.5 23.6-4 34h-3l1-7h2l-.1-2.6c0-3 .7-5.2 1.6-8.1 1.2-5.3 1.2-10.9 1.5-16.3"/><path fill="#d45d60" d="m158 292 8 1v2l10 2v2h4v2l2.3.3c3.2.8 4.5 2.2 6.7 4.7l-5-1v-2l-8-1v-2h-3v-2l-8-1v-2l-3-.4-3-.6z"/><path fill="#939393" d="M440 518a34 34 0 0 1-19 6v2l-13 1v-2q10.4-2.5 20.9-4.5c10.3-2.5 10.3-2.5 11.1-2.5"/><path fill="#989898" d="M347 535h10v2h-8v2q-10.5 1.1-21 1v-2q9.5-1.1 19-1z"/><path fill="#fde4e6" d="M109 271a25 25 0 0 1-1.5 8.2l-.8 2.7-.7 2.1-5 1 1-9h2v-3z"/><path fill="#f3aeae" d="M244 464c1 2 1 2 1 6l2-5h1l-1 11h-2l-1 5a24 24 0 0 1-1-7l-2 4h-1l1-10h2z"/><path fill="#fedfe0" d="M250 448h1c.3 5.5-.6 9.7-2.4 14.9l-.6 2c-1.7 5-1.7 5-4 6.1.4-7.2 1-13.3 4-20h2z"/><path fill="#9e9e9e" d="M61 417h2l1 13h2l2 6h4v5l-3-1v-2h-2v-2h-2l-1-5h-2c-1-4.8-1-9.2-1-14"/><path fill="#afafaf" d="m424 172 3 1v2h5v3h5l.8 2c1 2.2 1 2.2 3.3 2.8l1.9.2v2h2v3l-3-1v-2l-1.8-.4c-2.2-.6-2.2-.6-5.2-2.6v-2l-5-1v-2h-5z"/><path fill="#949494" d="M287 137c13.7-.1 27.3-.1 41 1v2h-18v-2h-23z"/><path fill="#f6bbbb" d="M515 316c4.1 4.3 4.6 7.3 5 13l-2-1v-2h-2v8c-2.1-2.1-2.4-3-3.1-5.9l-.5-2c-.4-2.1-.4-2.1-.4-6.1h2v4h2z"/><path fill="#fde3e1" d="m92 306-1 10h-2v5l-4 2c-.3-5.5.3-10.1 3-15 3-2 3-2 4-2"/><path fill="#c6c6c6" d="m535 433 1 3c-1.1 1.8-1.1 1.8-2.8 3.7l-1.7 1.9C530 443 530 443 528 443l-.2 2.3c-1 3.6-2.7 4.7-5.8 6.7h-2v-2l2.4-1.7c2.9-2 2.9-2 3.1-5.3.5-3 .5-3 2.9-5.4 2.6-1.6 2.6-1.6 5.6-1.6z"/><path fill="#e57f81" d="M46 295h2l-1 15h-1l-.1 2.3-.3 3-.2 3C45 321 45 321 43 324c-.4-10.2.2-19.1 3-29"/><path fill="#df7072" d="m246 516 11.3.4h3.3l3 .2h3c2.4.4 2.4.4 5.4 2.4 2 .5 2 .5 4.2.6l3.8.4v1h-12v-2h-1.8c-12.5.2-12.5.2-18.2-1z"/><path fill="#f6bbbb" d="M89 316h2l-1 8h-2l.1 3.6A26 26 0 0 1 86 338c-1.2-3.7-1-7.2-1-11h-2v-6l2-1v3h2q1.2-3.4 2-7"/><path fill="#fbc7c8" d="M280 396h8l-3 3h-2v2h-3v3h-3l-1 3-1-2 1-2-4 1v-2c5.4-4 5.4-4 8-4z"/><path fill="#d4d4d4" d="M127 169h1v6h2q1.3 10.5 1 21c-2-1-2-1-3-4l-.3-5.3-.1-3.1-.2-3.3V177z"/><path fill="#a0a0a0" d="m266 140-1 2-17 1v2h-8v-2h6v-2q10-1.2 20-1"/><path fill="#aaa" d="M72 441h4l1 6h2l1 2 2.6 1.3L85 452c.3 2.7.3 2.7 0 5h-2l-2-5h-3v-3h-3l-.4-2.4-.6-2.6-2-1z"/><path fill="#f3a5a5" d="M344 428h2l1 8h2c1.4 2.4 2 3.5 1.6 6.3l-.6 1.7-1-3h-3c-2-3-2-3-2-6h-2l-1-5 3 1z"/><path fill="#e88485" d="M91 78c5 5 4.4 14.4 4.6 21l.1 2.7.3 6.3h-2l-.2-1.8-1-11-.3-2.6-.2-2.5c-.2-2.2-.2-2.2-1.3-4.1z"/><path fill="#fbbcbe" d="M421 436h3a39 39 0 0 1 3 20l-1-4h-2l-.4-2.2-.5-3-.6-3z"/><path fill="#d04246" d="M81 387h1v2.8l-.3 25c0 3.2 0 3.2 1.8 5L85 421v2l-4-1c-1.4-2.9-1.1-5.4-1.1-8.7v-20.2c.1-3.1.1-3.1 1.1-6.1"/><path fill="#d04e50" d="M344 389q4 .7 8 2v2l8 3v2l8 1v2q-8.5-1-16-5l-2-3c-2.6-.7-2.6-.7-5-1z"/><path fill="#fbd4d5" d="M104 244h3q-2 4.3-5 8l2 2-3 1v2l-4 1 1-8 3-1 1-3h2z"/><path fill="#8e8e8e" d="m160 518 9 .6c2.9.4 4.5 1 7 2.4l4.3 1.1 3.7.9v1c-4.8 0-9.2 0-14-1v-2l-3.9-.4c-3.8-.4-3.8-.4-6.1-2.6"/><path fill="#a0a0a0" d="m459 512-3 1v2l-8 1v2h-8v-2h6v-2l4.8-1.6 2.7-.8c2.5-.6 2.5-.6 5.5.4"/><path fill="#faafb0" d="m363 166 3 1 2 7 1.7 3.3c1.3 2.7 1.3 2.7.3 5.7l-2-1v-2h-2a21 21 0 0 1-3-14"/><path fill="#bbb" d="M565 393v3h-3v2h-2l-.2 1.9c-.8 2.1-.8 2.1-2.8 3.2l-2 .9-1 3h-2v-3h2l.7-2.2c2-4.2 5.3-8.8 10.3-8.8"/><path fill="#050505" d="M260 348h9c-2 3-2 3-5 4h-16c2-2 2-2 4.4-2.2h2.7l2.8.1 2.1.1z"/><path fill="#fbb6b8" d="m171 473 2 1c.4 2.3.4 2.3.6 5l.3 2.8.1 2.2h2l1 8h-3l-1-8h-2z"/><path fill="#d9696d" d="M131 281c6.2.4 11.3 1.6 17 4v2h5l1 3a39 39 0 0 1-9.8-3.6c-4.3-2-8.5-2.1-13.2-2.4z"/><path fill="#939393" d="M470 180h2l-1 13h-2v6h-2c-.4-6.8 1-12.5 3-19"/><path fill="#afafaf" d="M400 159h3v2l8 1v2l1.8.9 6.2 3.1v1h-5l-1-2c-2.5-.7-2.5-.7-5-1v-2l-2.9-.4c-3.1-.6-3.1-.6-5.1-1.6z"/><path fill="#e8e8e8" d="M267.8 139.9h9.9l6.3.1v1l-3.7.2-4.7.2-2.5.2c-3.9-.2-3.9-.2-7.1 1.4l-6.2.7c-1.8.1-1.8.1-2.8 1.3h-9v-2l3.7-.4 4.7-.5 2.5-.3c3.1-.4 6-1.7 8.9-2"/><path fill="#dcdcdc" d="M210 529h11.5l2.5-.1h2.2c1.8.1 1.8.1 2.8 1.1l4 .6 4 .4v1q-13.5.1-27-1z"/><path fill="#f29598" d="M174 433h4c.5 5-1.2 8.5-3 13h-2l-2 2q1-7.6 3-15"/><path fill="#e7e7e7" d="M27 298h2v7l.1 3.8C29 312 29 312 28 313l-.6 8.6v2.4l-.4 6h-1q-.3-16 1-32"/><path fill="#999" d="m143 511 8 1v2l9 2v2h-6v-2l-10-1z"/><path fill="#fdcdd0" d="M255 436h1c.5 5-1.3 9.3-3 14l-5 1 3-10h2l.4-2c.6-2 .6-2 1.6-3"/><path fill="#9f9f9f" d="M373 149h8v2l2.1.4q4.5 1 8.9 2.6v2l-7.5-.7c-2.5-.3-2.5-.3-5.5-1.3v-4h-6z"/><path fill="#f7b5b7" d="M363 486c2 2 2 2 2 6h2l1 8-3-4v12c-2.6-2.6-2.4-4.2-2.7-7.9l-.2-3.2c0-2.6.2-4.4.9-6.9z"/><path fill="#d13f43" d="m357 164 6 1 .1 1.9.3 2.4.2 2.4c.3 2.6.3 2.6 2.4 5.3v3h2v2h-3l-3.1-7.3c-1-2.8-1-4.8-.9-7.7l-4-1z"/><path fill="#9f9f9f" d="M486 89h2c0 7.4.2 14.7-1 22h-2z"/><path fill="#db5f62" d="M357 476c3.2 4.8 3 7.3 3 13h2l1 13c-4.5-4.5-4.5-12-5.1-18l-.3-2.3z"/><path fill="#c2c1c2" d="M517 457c0 2 0 2-1.4 3.6-1.6 1.4-1.6 1.4-3.6 1.4l-1 5-6 1 4-8h3v-2c3-1 3-1 5-1"/><path fill="#f6b1b0" d="M341 420c2.8 3.7 3.3 6.4 3 11l-3-1v-2h-2l-3-7c3-1 3-1 5-1"/><path fill="#d86467" d="M448 407a19 19 0 0 1-8 12h-3l1-4h2l1-3h2v-2c2.5-3 2.5-3 5-3"/><path fill="#f9cdcd" d="M73 382h1v21h-4c-1.8-2.4-1.8-2.4-3-5l1-2 3 4z"/><path fill="#d76568" d="M256 388v2h-4v2h-2l-1 3-2.2.4c-2.8.5-2.8.5-5 1.7-1.8.9-1.8.9-4.8.9v-2h3v-2l8-1v-2c5.8-3 5.8-3 8-3"/><path fill="#db5053" d="M173 476h2l.8 3q1.2 4 2.8 7.7c1.4 3.3 1.4 3.3 1.4 7.3h-6v-2h3l-1-2v-6h-2z"/><path fill="#d04244" d="M44 348c2.5 4.5 2.7 9.1 3.2 14.2.4 3.7 1 6.5 2.8 9.8v3h-2v-3h-2q-1.2-4.3-1.3-8.8l-.1-2.7-.2-2.7v-2.9z"/><path fill="#fddedf" d="m504 292 1 2h2c3 5.3 3 5.3 2.7 8.7l-.7 2.3v3h-2l-1-8h-2z"/><path fill="#e47274" d="M118 242h15v2l-3.1.4-6.2.8a66 66 0 0 0-9.7 1.8l1-3h3z"/><path fill="#df6f70" d="M120 225h2l1 8h2v5h-8v-2l3-1z"/><path fill="#868686" d="M349 143c7-.2 12.4.8 19 3v2h-5v-2h-3.6q-5.4 0-10.4-1z"/><path fill="#e57f82" d="M353 517c-2 2-5.8 2-8.6 2.6l-2 .4c-5 .9-9.5 1.1-14.4 1 7-4 17-6.4 25-4"/><path fill="#f6b2b4" d="M368 505h2l1 8h13c-2 2-2 2-4.8 2.2h-3.3l-3.3-.1-2.6-.1c-2-6.6-2-6.6-2-10"/><path fill="#f09d9e" d="M303 391h9v4c-3.7 1.2-5.9.7-9.7 0l-3.6-.5-2.7-.5v-1h7z"/><path fill="#878787" d="M425 348c4.5 6.7 4.3 13.2 4 21l-2 1-.2-2.3-.2-3-.3-3c-.2-2.8-.2-2.8-1.3-5.7z"/><path fill="#f2abab" d="M499 132h2q-1.3 10.5-3 21h-2q-.1-7.6 1-15h2z"/><path fill="#fce3e3" d="M237 497h1v11l-2-2-4 3q.6-4.6 2-9h2z"/><path fill="#d44d4f" d="M136 486q5.7 1 11 3v2l5 1 5 1v2c-3.7.2-4.8.2-8-2l-5-1v-2l-5-1v-2z"/><path fill="#cc4042" d="M72 368h1l-1 33-3-2v-2h2v-15.8l-.1-3.3v-3.2q0-3.4 1.1-6.7"/><path fill="#dc797c" d="m320 382 12 1v2l4 .4c2.2.2 2.2.2 4 .6l1 2-4.8-.4-2.7-.2c-2.5-.4-2.5-.4-5.5-2.4-2-.5-2-.5-4.2-.6l-3.8-.4z"/><path fill="#dc7476" d="M463 283c1 2 1 2 1.7 4.4l.7 2.4c.6 2.2.6 2.2.6 5.2h-2v-6h-2c-1.6-1.3-1.6-1.3-3-3v-3l-6 1v-2c4-1.3 6-.3 10 1"/><path fill="#bbb" d="M178 172v2h-3l-.2 1.9c-.8 2.1-.8 2.1-3.1 3.3-2.7.8-2.7.8-6.7.8v-2h3v-3l2.9-1c6-2 6-2 7.1-2"/><path fill="#8e8e8e" d="M200 529h10v2h16v1h-10.9q-7.5.1-15.1-1z"/><path fill="#939393" d="M568 279h2v2h2a53 53 0 0 1 2 16h-1v-5h-2l-.4-3.3c-.4-3.8-.4-3.8-2.6-6.7z"/><path fill="#e78686" d="M475 233h2v3l2.4-.3c5.2.4 9 2.8 13.6 5.3l-2 1-5.8-2.2c-3.4-1.2-6.6-1.5-10.2-1.8z"/><path fill="#fbc8c8" d="M368 208c1 2 1 2 .2 4.4l-1.1 2.7-1.2 2.8-.9 2.1h-3c-.6-4.8 1.1-7.2 4-11z"/><path fill="#f3b1b1" d="m104 158 2 1v2h2l1 19c-1.6-3.2-2.3-5-2.9-8.3l-.3-2.4-.4-2.6-.4-2.5z"/><path fill="#acacac" d="M544 68h2c1.3 6 1 12 1 18l-2-1z"/><path fill="#fdd8da" d="m360 479 3 1 .6 5.9.4 3.3v2.8l-2 2v-5h-2z"/><path fill="#dc686b" d="M352 457h2l.4 2.8.5 3.6.6 3.7c.2 2.8.2 2.8 1.5 3.9v5c-3.9-4-4.5-6.8-4.7-12.3l-.2-3.8z"/><path fill="#f9c8c9" d="M522 268c3 0 3 0 4.7 1.5l1.3 1.5-1 3h-2v2h-2v-3h-3z"/><path fill="#d85859" d="m366 167 10 3v1h-7l1 7c-2.6-1.3-3-2.3-4-5z"/><path fill="#dc5f62" d="m514 75-1 1.8c-1.1 2.3-1.1 2.3-2 5.2h-2v5l-2 1c-.2-4.5-.2-8 2-12 3-1 3-1 5-1"/><path fill="#db5e61" d="M408 506v2h-6v2l-10 1v-2c5.2-2.4 10.3-3 16-3"/><path fill="#2b2b2b" d="M230 352h8v1l6 1a15 15 0 0 1-9.2 2.1H232l-2-.1 2-1v-2z"/><path fill="#d45f61" d="M127 284h4l-1 5h-2v3h-2l-2 6c-1.6-3.2 0-5.7 1-9h2z"/><path fill="#f7c2c2" d="M81 263h2l-1 4h-2v2h2v2h-2v2h-2v-3l-4 1 1-3h3v-2h2z"/><path fill="#d85455" d="M341 244h3l-1 3h-2v3h-13c2-2 2-2 4.4-2.2h2.7l2.8.1 2.1.1z"/><path fill="#e06667" d="M469 242h13v2l4 1c-3.8 1.3-6.3.7-10.2 0l-3.8-.5-3-.5z"/><path fill="#dc696b" d="M230 167h4l-1 7-2 1-1-4-7 1c1.3-1.5 1.3-1.5 3-3h4z"/><path fill="#818181" d="m59 60 2 1c-2.9 6.9-2.9 6.9-4 8l-1 7h-2v-8h2l.4-2.9C57 62 57 62 59 60"/><path fill="#a7a7a7" d="M504 468h3l-1 5h-2l-1 3h-2l-.4 2-.6 2-2 1c.8-3.4.8-3.4 2-7l3-1z"/><path fill="#d3595c" d="M366 319c-2.6 2.6-4.2 2.5-7.7 3l-3.2.5-3.1.5-6 1c4.7-6.1 13-5.3 20-5"/><path fill="#f4b0b1" d="M90 302c1.1 3.8 1.1 3.8 0 6h-2c.9-4.9.9-4.9 2-6m3 1h3l-3 10h-2c-.2-6-.2-6 0-8z"/><path fill="#fac6c5" d="M356 225h2c-.5 6.4-.5 6.4-3 9.4l-2 1.6c-.7-2.1-.7-2.1-1-5 1.8-3.3 1.8-3.3 4-6"/><path fill="#c7c7c7" d="m156 188 1 3h-3v2l-1.9.8c-2.5 1.4-3 2.6-4.1 5.2l-4-1a27 27 0 0 1 12-10"/><path fill="#d5454b" d="M236 168h1c.5 6-.3 9.3-3.6 14.4-1.4 1.6-1.4 1.6-4.4 2.6l1-3h2v-4h2z"/><path fill="#da5c5e" d="M496 153h2c-.6 13.8-.6 13.8-4 19-1.3-4-.4-7.2.4-11.2l.5-2.3z"/><path fill="#ddd" d="M492 72h1v8l-1 1-.6 4.6-.2 2.5-.2 1.9-3 1 1-12h3z"/><path fill="#7d7d7d" d="M459 199h2v3h3l1-3h2v8l-4-1v-2l-3-1c-.7-2-.7-2-1-4"/><path fill="#8a8a8a" d="M328 140c7-.1 14-.1 21 1v2h-10v-2h-11zM115 108h2v8h2v11h-1v-9h-3z"/><path fill="#ddd" d="M151 513c11.3.8 11.3.8 15 3l1 3-7-1v-2l-9-2z"/><path fill="#fccdcc" d="M262 417h2v2l3-1c-1.1 3-2.2 5.3-4 8h-2z"/><path fill="#e17a7a" d="M552 292h2c2.4 5 3.3 8.3 3 14-4.3-4.3-4.7-8.1-5-14"/><path fill="#d84a4f" d="M228 185c.9 2.5 1.2 3.6.1 6l-1.1 2-1 4 2 1h-3c-1-4.5-1.4-6.3 1-10.4z"/><path fill="#d3494b" d="M103 152h1l2 10q1 5 1 10h-2c-1.8-6.8-2.2-13-2-20"/><path fill="#c5c5c5" d="M538 417h1v6.3l.1 3.6c-.1 3.1-.1 3.1-1.1 6.1h-2c-.2-5.8.4-10.4 2-16"/><path fill="#d86e71" d="m368 401 5 1v2h3v2l5 1v2l-4.4-1.4-2.4-.8c-2.2-.8-2.2-.8-4.2-1.8v-2h-2z"/><path fill="#d3474a" d="M530 384h1v11l5-1v2h-2l-1 3-3 1z"/><path fill="#f2a9aa" d="M112 196h2c2 5 3.4 8.6 3 14-2-1-2-1-3-3a52 52 0 0 1-2-11"/><path fill="#e99193" d="M239 502h1c0 4.5.1 8.6-1 13l2 1h-4c-.2-5.2 0-9 2-14"/><path fill="#fef4f6" d="M243 473c1.5 3.9.4 6.4-1 10.3l-1 3.2-1 2.5c-1.5-5-1-9.3 1.6-14z"/><path fill="#a4a4a4" d="M368 356h5v5h2l1 8h-2v-3h-2l-.5-6c-.4-2.4-.4-2.4-3.5-4"/><path fill="#a6a6a6" d="M448 191h2l1 2c2.5.7 2.5.7 5 1v3h2v2l-4-1v-2h-5z"/><path fill="#8d8d8d" d="M434 178h3l.8 2c1 2.2 1 2.2 3.3 2.8l1.9.2v2h2v3l-3-1v-2l-1.7-.2c-3-1-4.3-2.5-6.3-4.8z"/><path fill="#adadad" d="M216 151h5l-1 3-12 2v-2c2.7-1.4 5-1 8-1z"/><path fill="#bbb" d="m480 500-1 3h-2v2c-2.3 1.7-2.3 1.7-5 3l-3-1 3-1v-3c5.8-3 5.8-3 8-3"/><path fill="#989897" d="M530 441v2h-2l-.2 2.3c-1 3.6-2.7 4.7-5.8 6.7h-2v-2l2.4-1.9c2.7-2.2 3-2.8 3.6-6.1 2-1 2-1 4-1"/><path fill="#b6b6b6" d="m423 382 1 2c-2.1 5-5.3 6.6-10 9l-1-2h3v-3h3l1-3h2z"/><path fill="#e2888a" d="M475 324h2v5h2l1 11h-2v-8h-2z"/><path fill="#fdd9da" d="M109 271c0 3 0 3-2 6l-2 .5-2 .5-1 3-1-2 1-3h2v-3z"/><path fill="#bbb" d="M44 257h1l.3 6.8.2 3.7c-.5 3.5-.5 3.5-2.8 5.9C40 275 40 275 37 276c0-2 0-2 1.3-3.6C40 271 40 271 43 270z"/><path fill="#d95659" d="m98 257 3 1c-3.4 3.8-6 5.7-11 7v-2h3v-3h3v-2z"/><path fill="#fac8c8" d="M504 252c2 0 2 0 3.6 1.4 1.4 1.6 1.4 1.6 1.4 3.6h-2l2 5h-2l-.2-1.9c-.6-2.4-.6-2.4-3.4-3.4l-2.4-.7 2-1 2 1z"/><path fill="#d74d4f" d="m189 188 2 1q-3.7 4-8 7h-4v-2l5-1v-2l5-1z"/><path fill="#d86a6d" d="M400 420q5.2 2 10 5l3 1v2l-9-2-1-4h-3z"/><path fill="#d85758" d="m56 286 2 1-3 1-2 4-2 2h-3l1-4 4-1v-2z"/><path fill="#f59d9d" d="M368 182h5l1 3 2 1-2 4-1-2h-2v-3h-2z"/><path fill="#878787" d="M127 169h1v6h2v10h-2z"/><path fill="#fcc2c4" d="M235 166h2l-3 12h-2v2l-2-1 1.4-3.1a106 106 0 0 0 3.6-9.9"/><path fill="#db595d" d="m196 506 11 2 1 3-8-1v-2l-4-1z"/><path fill="#fec4c5" d="M173 442h1l-.4 6.9-.2 3.8c-.4 3.3-.4 3.3-2.4 5.3-.2-5.7-.3-10.6 2-16"/><path fill="#d5494f" d="m111 274 1 2c-.6 1.9-.6 1.9-1.7 4l-1 2.1c-1.5 2.2-2.9 3-5.3 3.9v-2h2l.3-2.2c.8-3.4 2.4-5.2 4.7-7.8"/><path fill="#c2c2c2" d="m114 492 5 1 1 5h2v2l-4-1-.3-2-.7-2-3-1z"/><path fill="#b5b5b5" d="m51 409 5 2v2l5 1v3h-2v-2l-2.3-.3c-2.9-.7-4-1.4-5.7-3.7z"/><path fill="#a7a7a7" d="M571 377h2c.4 4.4-.8 7.1-3 11h-2v-5h2z"/><path fill="#e6e6e6" d="M571 292h2q1.3 5.6 1 11.3v5.7h-1l-.2-1.9-.2-2.5-.3-2.4c-.2-2.2-.2-2.2-1.3-4.2z"/><path fill="#fff4f3" d="m488 243 6 1 1 4-7-1-1-3z"/><path fill="#b3b2b3" d="M459 508h10v2l-10 1z"/><path fill="#f8c1c1" d="M487 265h6v3l-4-1 1 6h-2z"/><path fill="#dc6265" d="m480 222 2 1-.8 4.4-.5 2.5-.7 2.1-3 1c.5-4 .9-7.5 3-11"/><path fill="#cf494d" d="m472 311 3 1c1.8 4 2.2 7.6 2 12h-2l-1-11h-2z"/><path fill="#fef6f6" d="m512 314 3 1 1 9h-2v-4h-2z"/><path fill="#d66e70" d="M189 306c5 .5 8.6 1.6 13 4v1l-8-1v-2l-5-1z"/><path fill="#fef2f0" d="M92 306c-.3 3.4-.3 3.4-1 7l-3 2c-.2-3.4-.2-3.4 0-7 3-2 3-2 4-2"/><path fill="#d75053" d="M153 222c-1.5 4.7-4.9 5.9-9 8l1-4 4-1v-2c2-1 2-1 4-1"/><path fill="#848484" d="M131 191h2v5h2v8h-1v-6h-3z"/><path fill="#fcbdbe" d="m363 166 3 1v8l-3-1z"/><path fill="#b3b3b3" d="M208 156v2h-5v2l-6 1v-2c3.9-2.2 6.6-3.4 11-3"/><path fill="#de6366" d="m272 404-1 3h-2l-1 2.4c-1 2.6-1 2.6-2 4.6h-2l1-5 2-1 1-3c2-1 2-1 4-1"/><path fill="#d25556" d="M221 404h3c-1.4 3.2-2 4-5 6l-3-1v-2l5-1z"/><path fill="#d0585a" d="M403 306v2h-3v2l-7 1v-2c3.4-2.2 6-3 10-3"/><path fill="#fbcacc" d="m504 289 3 3v2h-2l-2 2-2-2v-4z"/><path fill="#fedddd" d="m343 248 1 4h-16v-1h13v-2z"/><path fill="#da5759" d="M356 223c0 3.4-.7 4.4-2.5 7.2l-1.4 2.2-1.1 1.6c-1.2-2.5-.8-3.4 0-6h2l-1-3z"/><path fill="#f7b1b0" d="M421 436h3c2.1 4.6 2.1 4.6 1 8h-2c-1.3-3-2-4.8-2-8"/><path fill="silver" d="m66 433 2 1v2h4v5l-3-1v-2h-2z"/><path fill="#f6b4b6" d="M280 402v2h-3l-1 3-1-2 1-2-4 1v-2c2.9-1.4 5-.6 8 0"/><path fill="#ffeef0" d="M86 326v8l-4-2 1-5c2-1 2-1 3-1"/><path fill="#afafaf" d="M35 276c.2 3.4.2 3.4 0 7l-3 2v-8c2-1 2-1 3-1"/><path fill="#da595c" d="M80 271h2c-.6 3.2-1.4 5-4 7h-3v-2h2l1-3h2z"/><path fill="#fddde0" d="m516 265 6 1-1 5c-2-.7-2-.7-4-2-.7-2.1-.7-2.1-1-4"/><path fill="#f4a8a8" d="M235 212h2c.8 3.3 1.1 4.7 0 8h-2v-3h-2l-1-3h3z"/><path fill="#da5a5c" d="M492 176h1l.3 6.7c-.4 2.8-1.2 3.6-3.3 5.3l.4-4.9.3-2.7c.3-2.4.3-2.4 1.3-4.4"/><path fill="#b9b9b9" d="m85 457 5 1 1 7-3-3v-2h-2z"/><path fill="#d54849" d="M346 430h2c3.1 6.6 3.1 6.6 2 10l-1-4h-2z"/><path fill="#fce3e3" d="M501 284h3v7l-3-1-1-5z"/><path fill="#db585b" d="m510 264 5 2v2l5 2-2 1c-3.6-1.2-3.6-1.2-7-3-1-2.2-1-2.2-1-4"/><path fill="#f8bbbb" d="m115 238 2 1-5 2v2l-5 1v-2l3.9-2 2.2-1.2z"/><path fill="#fdc6c7" d="M237 217h3v3h2v2l-4 1c-1-1-1-1-1-3.6z"/><path fill="#fed3d3" d="m231 207 1 2 3 1 1 6c-2-.6-2-.6-4-2-.7-3.6-.7-3.6-1-7"/><path fill="#9f9f9f" d="m392 156 8 1v2h-8z"/><path fill="#fddedf" d="M364 495c2.8 2.8 3.4 3.4 4 7h-2l-2 3z"/><path fill="#b3b3b3" d="M486 492h2l-1 3h-2v2h-2l-1 3h-2v-2h2l1-4h3z"/><path fill="#c6c6c6" d="m96 470 4 1 1 5-3-1v-2h-2z"/><path fill="#fed3d0" d="m340 423 4 2v6l-3-1z"/><path fill="#d35859" d="m435 419 2 1c-2.3 2.5-2.3 2.5-5 5h-3l1-3h2v-2z"/><path fill="#df8587" d="m454 399 2 1c-1.2 3.7-2.9 4.8-6 7h-2l1-3h2v-2z"/><path fill="#d3595a" d="M466 388c-.2 2.4-.2 2.4-1 5-2 1.3-2 1.3-4 2 0-4 0-4 1.4-5.7 1.6-1.3 1.6-1.3 3.6-1.3"/><path fill="#d76466" d="m476 374 1 2c-1.2 2.6-1.2 2.6-3 5l-3 1 1-5h2v-2z"/><path fill="#dc6466" d="M45 366c2 1.1 2 1.1 4 3 .8 3.2.8 3.2 1 6h-2v-3h-2z"/><path fill="#d66466" d="M118 308h2l-1.4 5-.7 2.7c-.9 2.3-.9 2.3-2.9 3.3v-7l3-1z"/><path fill="#fdd7d9" d="M512 308h2l1 7h-4z"/><path fill="#f0b4b5" d="m434 292-1 4-7 1c4.8-5 4.8-5 8-5"/><path fill="#f2a4a4" d="m253 238 3 1v8l-3-1z"/><path fill="#afafaf" d="M192 164v2c-2.7 1.4-5 1-8 1v-2c2.7-1.4 5-1 8-1"/><path fill="#9c9c9c" d="m229 148-1 3h-7v-2c3-1 5-1 8-1"/><path fill="#d73f43" d="m420 490 1 4h3v-2h2l1-2 1 3c-2 2-2 2-5.1 2.1l-2.9-.1z"/><path fill="#fff4f3" d="M499 250c2.4.8 2.4.8 5 2 .8 2.1.8 2.1 1 4-2.4-.7-2.4-.7-5-2-.8-2.1-.8-2.1-1-4"/><path fill="#da5d5f" d="M488 247c3.7 1.2 4.8 1.7 7 5l-6-1z"/><path fill="#f5a4a5" d="M368 204h2c.7 2.3.7 2.3 1 5-1.4 1.8-1.4 1.8-3 3v-3h-2v-2h2z"/><path fill="#7e7e7e" d="M104 60h2c1.7 2.3 1.7 2.3 3 5l-1 3c-4-4.6-4-4.6-4-8"/><path fill="#fed8d7" d="M480 471c-1.5 4.7-1.5 4.7-4.1 6.3l-1.9.7c.6-3.6 1.9-7 6-7"/><path fill="#f8afaf" d="M255 433h3l1 3-3 3-1-2-2 1z"/><path fill="#f2c1c2" d="M203 416c-5.7 4-5.7 4-8 4l1-4c4.8-1.1 4.8-1.1 7 0"/><path fill="#acacac" d="M29 377h2l1 8h-2z"/><path fill="#777" d="M376 372h2v2h2l1 6c-2.8-2.5-4.5-4.2-5-8"/><path fill="#111" d="M260 348h9l-3 3c-3.2-.3-3.2-.3-6-1z"/><path fill="#dc5e5f" d="m514 308 3 2c.4 2.7.1 5.2 0 8-3-3-2.6-5.8-3-10"/><path fill="#fcccce" d="M59 285c-3 2-3 2-6 2v2h-2l1-4c3-1 3.9-1 7 0"/><path fill="#fee" d="M82 265h4v3h-3l-1 2-2-1v-2h2z"/><path fill="#f8c4c3" d="m458 229 5 1 1 6-3-1v-4l-3-1z"/><path fill="#d74c4c" d="M229 201h3l2 8h-2l-.4-2-.6-2-2-1z"/><path fill="#e07c7c" d="m357 164 6 1v5l-6-4z"/><path fill="#d6d6d6" d="M61 60h3l-1 3h-2l-1 4h-1v-5z"/><path fill="#a8a8a8" d="M133 508c5.8-.1 5.8-.1 8 1v2l-8-1z"/><path fill="#f5b3b3" d="m101 444 3 1v4l3 1-1 2c-2.8-2.5-4.5-4.2-5-8"/><path fill="#cacaca" d="M72 441h4l1 6h-2l-1-3-2-1z"/><path fill="#fee2e2" d="m335 415 4 2v5l-3-1z"/><path fill="#ce4d4f" d="M207 414v2h-3v3h-5c4.8-5 4.8-5 8-5"/><path fill="#e88d93" d="M387 412c4.8 1.9 4.8 1.9 7 3v2l-5-1v-2h-2z"/><path fill="#d34f50" d="M277 404h2c-1 3.4-1.6 4.8-4.6 6.8L272 412c0-2 0-2 2-4l2-2z"/><path fill="#d04244" d="m460 395 1 3-3 3-3-1 1-2h2v-2z"/><path fill="#e08181" d="M344 389q4 .7 8 2v2l-7-1z"/><path fill="#cf5053" d="M480 366h2l-1 6h-2v2h-2l1-2.3z"/><path fill="#6d6d6d" d="M374 338h2c.2 2.8.2 2.8 0 6l-3 3z"/><path fill="#fec9ca" d="M373 199c1 3 1 3.9 0 7l-3 1 1-6h2z"/><path fill="#dd6869" d="M176 196h3c-.7 2-.7 2-2 4-2.1.8-2.1.8-4 1l1-3h2z"/><path fill="#e56e72" d="M236 168h1v8l-3 1z"/></svg>